<svg width="45" height="44" viewBox="0 0 45 44" fill="none" xmlns="http://www.w3.org/2000/svg">
    <path d="M22.4644 37.0215C14.2644 37.0215 7.46435 30.2215 7.46435 22.0215C7.46435 13.8215 14.2644 7.02148 22.4644 7.02148C30.6644 7.02148 37.4644 13.8215 37.4644 22.0215C37.4644 30.2215 30.6644 37.0215 22.4644 37.0215ZM22.4644 35.0215C29.7644 35.0215 35.5644 29.2215 35.5644 22.0215C35.5644 14.8215 29.7644 8.92148 22.5644 8.92148C15.3644 8.92148 9.46435 14.7215 9.46435 22.0215C9.46435 29.2215 15.2644 35.0215 22.4644 35.0215ZM25.7644 29.3215C25.4644 29.6215 24.8644 29.6215 24.4644 29.3215L17.9644 23.1215C17.2644 22.5215 17.2644 21.5215 17.9644 20.9215L24.4644 14.7215C24.8644 14.3215 25.3644 14.3215 25.6644 14.7215C26.0644 15.0215 26.0644 15.6215 25.6644 15.9215L19.2644 22.0215L25.6644 28.1215C26.1644 28.4215 26.1644 29.0215 25.7644 29.3215Z" fill="#919191"/>
</svg>
