<svg width="93" height="92" viewBox="0 0 93 92" fill="none" xmlns="http://www.w3.org/2000/svg">
    <path d="M52.8645 39.7214C52.9521 40.8345 52.1582 41.7915 51.1473 41.7915H47.8565C46.9045 41.7915 46.1328 40.9386 46.1328 39.8865V21.7884C46.1328 20.7362 46.9045 19.8833 47.8565 19.8833H49.7235C50.6175 19.8833 51.3632 20.6388 51.4406 21.6233L52.8645 39.7214Z" fill="#34C759" fill-opacity="0.6"/>
    <path d="M40.9619 40.4823C40.9619 41.2784 40.5143 41.9908 39.8628 42.3302C38.4421 43.0704 36.0212 44.5598 34.9292 46.5728C33.5218 49.1671 33.2563 53.8545 33.2132 54.9282C33.2071 55.0785 33.211 55.2289 33.1923 55.378C32.959 57.2374 29.7115 55.0652 28.4656 52.7684C27.7894 51.522 27.7027 49.8843 27.7738 48.6057C27.8499 47.2377 28.2128 45.9161 28.5688 44.6032V44.6032C28.9511 43.1938 27.8898 41.8063 26.4295 41.8063H19.9708C18.8278 41.8063 18.0014 40.5992 18.312 39.3835L22.9402 21.2706C23.1499 20.45 23.8275 19.8833 24.599 19.8833H39.2383C40.1902 19.8833 40.9619 20.7362 40.9619 21.7884V40.4823Z" stroke="#34C759" stroke-opacity="0.6" stroke-width="3" stroke-linecap="square" stroke-linejoin="round"/>
    <path d="M39.7586 51.44C39.671 50.3269 40.4649 49.3699 41.4757 49.3699H44.7666C45.7185 49.3699 46.4902 50.2228 46.4902 51.275V69.3731C46.4902 70.4252 45.7185 71.2781 44.7666 71.2781H42.8996C42.0055 71.2781 41.2599 70.5226 41.1824 69.5382L39.7586 51.44Z" fill="#34C759"/>
    <path d="M51.6611 50.6791C51.6611 49.8831 52.1088 49.1706 52.7602 48.8312C54.1809 48.091 56.6018 46.6016 57.6938 44.5886C59.1013 41.9943 59.3667 37.3069 59.4099 36.2333C59.4159 36.083 59.412 35.9325 59.4307 35.7835C59.664 33.924 62.9115 36.0962 64.1574 38.393C64.8336 39.6395 64.9203 41.2771 64.8492 42.5557C64.7731 43.9238 64.4102 45.2453 64.0542 46.5583V46.5583C63.6719 47.9676 64.7332 49.3551 66.1935 49.3551H72.6523C73.7953 49.3551 74.6217 50.5622 74.311 51.778L69.6828 69.8908C69.4731 70.7114 68.7956 71.2781 68.0241 71.2781H53.3848C52.4328 71.2781 51.6611 70.4252 51.6611 69.373V50.6791Z" stroke="#34C759" stroke-width="3" stroke-linecap="square" stroke-linejoin="round"/>
</svg>
