<svg width="30" height="30" viewBox="0 0 30 30" fill="none" xmlns="http://www.w3.org/2000/svg">
    <path d="M11.2286 9.81437C10.8381 9.42385 10.2049 9.42385 9.81438 9.81437C9.42385 10.2049 9.42385 10.8381 9.81438 11.2286L13.5856 14.9998L9.81438 18.771C9.42385 19.1616 9.42385 19.7947 9.81438 20.1852C10.2049 20.5758 10.8381 20.5758 11.2286 20.1852L14.9998 16.414L18.771 20.1852C19.1616 20.5758 19.7947 20.5758 20.1852 20.1852C20.5758 19.7947 20.5758 19.1616 20.1852 18.771L16.414 14.9998L20.1852 11.2286C20.5758 10.8381 20.5758 10.2049 20.1852 9.81437C19.7947 9.42385 19.1616 9.42385 18.771 9.81437L14.9998 13.5856L11.2286 9.81437Z" fill="white"/>
</svg>
