<svg width="165" height="164" viewBox="0 0 165 164" fill="none" xmlns="http://www.w3.org/2000/svg">
    <path fill-rule="evenodd" clip-rule="evenodd" d="M57 57.8938C57 55.6847 58.7909 53.8938 61 53.8938H100.891C103.101 53.8938 104.891 55.6847 104.891 57.8938V67.1246C104.891 69.3337 103.101 71.1246 100.891 71.1246H61C58.7909 71.1246 57 69.3337 57 67.1246V57.8938ZM66.629 62.5092C66.629 63.7687 65.6079 64.7897 64.3484 64.7897C63.0889 64.7897 62.0679 63.7687 62.0679 62.5092C62.0679 61.2497 63.0889 60.2286 64.3484 60.2286C65.6079 60.2286 66.629 61.2497 66.629 62.5092ZM72.3303 60.2286C71.0708 60.2286 70.0498 61.2497 70.0498 62.5092C70.0498 63.7687 71.0708 64.7897 72.3303 64.7897H97.6697C98.9292 64.7897 99.9502 63.7687 99.9502 62.5092C99.9502 61.2497 98.9292 60.2286 97.6697 60.2286H72.3303Z" fill="#34C759"/>
    <path fill-rule="evenodd" clip-rule="evenodd" d="M57 77.1517C57 74.9426 58.7909 73.1517 61 73.1517H100.891C103.101 73.1517 104.891 74.9426 104.891 77.1517V86.3825C104.891 88.5916 103.101 90.3825 100.891 90.3825H61C58.7909 90.3825 57 88.5916 57 86.3825V77.1517ZM66.629 81.7671C66.629 83.0266 65.6079 84.0476 64.3484 84.0476C63.0889 84.0476 62.0679 83.0266 62.0679 81.7671C62.0679 80.5076 63.0889 79.4865 64.3484 79.4865C65.6079 79.4865 66.629 80.5076 66.629 81.7671ZM72.3303 79.4865C71.0708 79.4865 70.0498 80.5076 70.0498 81.7671C70.0498 83.0266 71.0708 84.0476 72.3303 84.0476H97.6697C98.9292 84.0476 99.9502 83.0266 99.9502 81.7671C99.9502 80.5076 98.9292 79.4865 97.6697 79.4865H72.3303Z" fill="#34C759"/>
    <path fill-rule="evenodd" clip-rule="evenodd" d="M57 96.4096C57 94.2005 58.7909 92.4096 61 92.4096H100.891C103.101 92.4096 104.891 94.2005 104.891 96.4096V105.64C104.891 107.85 103.101 109.64 100.891 109.64H61C58.7909 109.64 57 107.85 57 105.64V96.4096ZM66.629 101.025C66.629 102.285 65.6079 103.306 64.3484 103.306C63.0889 103.306 62.0679 102.285 62.0679 101.025C62.0679 99.7655 63.0889 98.7445 64.3484 98.7445C65.6079 98.7445 66.629 99.7655 66.629 101.025ZM72.3303 98.7445C71.0708 98.7445 70.0498 99.7655 70.0498 101.025C70.0498 102.285 71.0708 103.306 72.3303 103.306H97.6697C98.9292 103.306 99.9502 102.285 99.9502 101.025C99.9502 99.7655 98.9292 98.7445 97.6697 98.7445H72.3303Z" fill="#34C759"/>
    <path fill-rule="evenodd" clip-rule="evenodd" d="M109.706 64.663H102.611V61.3689H110.593C111.922 61.3689 113 62.4467 113 63.7761V100.265C113 101.594 111.922 102.672 110.593 102.672H102.611V99.3779H109.706V64.663Z" fill="#34C759"/>
    <path fill-rule="evenodd" clip-rule="evenodd" d="M111.353 83.9209H103.624V80.6268H111.353V83.9209Z" fill="#34C759"/>
    <rect x="25" y="24.5" width="115" height="115" rx="24.5" stroke="#34C759" stroke-width="5"/>
</svg>
