<svg width="25" height="19" viewBox="0 0 25 19" fill="none" xmlns="http://www.w3.org/2000/svg">
    <path d="M20.817 2.15557C19.2873 1.45369 17.647 0.936576 15.9319 0.640403C15.9007 0.634687 15.8695 0.648971 15.8534 0.677541C15.6424 1.05276 15.4087 1.54225 15.2451 1.927C13.4004 1.65083 11.5652 1.65083 9.75832 1.927C9.59465 1.5337 9.35248 1.05276 9.14057 0.677541C9.12449 0.649924 9.09328 0.63564 9.06205 0.640403C7.34791 0.93563 5.70756 1.45275 4.17693 2.15557C4.16368 2.16129 4.15233 2.17082 4.14479 2.18319C1.03339 6.83155 0.18105 11.3657 0.59918 15.8436C0.601072 15.8655 0.61337 15.8864 0.630398 15.8997C2.68321 17.4073 4.67171 18.3225 6.62328 18.9291C6.65451 18.9386 6.68761 18.9272 6.70748 18.9015C7.16913 18.2711 7.58064 17.6063 7.93348 16.9073C7.9543 16.8664 7.93442 16.8178 7.89186 16.8016C7.23913 16.554 6.6176 16.2521 6.01973 15.9093C5.97244 15.8816 5.96865 15.814 6.01216 15.7816C6.13797 15.6873 6.26382 15.5893 6.38396 15.4902C6.40569 15.4721 6.43598 15.4683 6.46153 15.4797C10.3893 17.273 14.6415 17.273 18.523 15.4797C18.5485 15.4674 18.5788 15.4712 18.6015 15.4893C18.7216 15.5883 18.8475 15.6873 18.9742 15.7816C19.0177 15.814 19.0149 15.8816 18.9676 15.9093C18.3697 16.2588 17.7482 16.554 17.0945 16.8006C17.052 16.8168 17.033 16.8664 17.0538 16.9073C17.4143 17.6054 17.8258 18.2701 18.2789 18.9005C18.2978 18.9272 18.3319 18.9386 18.3631 18.9291C20.3241 18.3225 22.3126 17.4073 24.3654 15.8997C24.3834 15.8864 24.3948 15.8664 24.3967 15.8445C24.8971 10.6676 23.5585 6.17064 20.8482 2.18414C20.8416 2.17082 20.8303 2.16129 20.817 2.15557ZM8.52002 13.117C7.3375 13.117 6.36313 12.0313 6.36313 10.6981C6.36313 9.36477 7.3186 8.27912 8.52002 8.27912C9.73087 8.27912 10.6958 9.3743 10.6769 10.6981C10.6769 12.0313 9.72141 13.117 8.52002 13.117ZM16.4947 13.117C15.3123 13.117 14.3379 12.0313 14.3379 10.6981C14.3379 9.36477 15.2933 8.27912 16.4947 8.27912C17.7056 8.27912 18.6705 9.3743 18.6516 10.6981C18.6516 12.0313 17.7056 13.117 16.4947 13.117Z" fill="white"/>
</svg>
