<svg width="188" height="189" viewBox="0 0 188 189" fill="none" xmlns="http://www.w3.org/2000/svg">
    <path fill-rule="evenodd" clip-rule="evenodd" d="M64.1758 55.3422V140.287L80.964 130.592V48.6179L64.1758 55.3422Z" fill="black"/>
    <path fill-rule="evenodd" clip-rule="evenodd" d="M46.5907 129.321L63.7381 139.337V54.7374L69.355 58.086L55.3968 33.5842L41.1021 41.5927L46.5907 44.7713V129.321Z" fill="#34C759"/>
    <path fill-rule="evenodd" clip-rule="evenodd" d="M70.1548 59.4122L55.6026 32.8436L40 41.5848L46.0458 45.0865L46.0459 129.634L64.2834 140.287L64.2833 55.6977L70.1548 59.4122ZM55.1913 34.3247L68.2103 57.3071L63.1933 53.4922L63.1932 138.386L47.1359 129.007L47.136 44.4564L42.2044 41.6007L55.1913 34.3247Z" fill="black"/>
    <path fill-rule="evenodd" clip-rule="evenodd" d="M70.1546 59.4122L85.7957 47.8426L72.2584 23.8748L55.2285 33.675L70.1546 59.4122Z" fill="#34C759"/>
    <path fill-rule="evenodd" clip-rule="evenodd" d="M86.5899 47.7674L72.4609 23.1289L54.4824 33.4751L68.9702 58.4565L70.1548 59.4123L86.5899 47.7674ZM72.0563 24.6207L85.0186 47.3047L70.0355 57.9059L55.975 33.8754L72.0563 24.6207Z" fill="black"/>
    <path fill-rule="evenodd" clip-rule="evenodd" d="M96.3184 53.8816V157.882L116.873 146.012V45.6488L96.3184 53.8816Z" fill="black"/>
    <path fill-rule="evenodd" clip-rule="evenodd" d="M74.7888 144.456L95.7829 156.719V53.1412L102.66 57.2409L85.5704 27.2426L68.0688 37.0476L74.7888 40.9393V144.456Z" fill="#34C759"/>
    <path d="M67.7293 37.0452L85.6261 27.0188L96.5282 46.9233L85.7535 27.9027L85.5082 27.4697L85.074 27.713L69.1737 36.6212L68.408 37.0502L69.1676 37.4901L74.9561 40.842L74.956 144.072V144.359L75.2038 144.504L94.8633 155.987L95.6155 156.427L95.6155 155.555L95.6156 52.6249L100.095 56.0313L96.7174 53.8943L95.9501 53.4089L95.9501 54.3169L95.9502 157.011L74.6215 144.553L74.6214 41.3252L74.6214 41.037L74.372 40.8926L67.7293 37.0452ZM102.271 57.4074L101.028 56.6215L101.577 56.1419L102.271 57.4074Z" fill="#34C759" stroke="black"/>
    <path fill-rule="evenodd" clip-rule="evenodd" d="M103.639 58.8646L122.789 44.6995L106.215 15.3549L85.3643 27.3537L103.639 58.8646Z" fill="#34C759"/>
    <path fill-rule="evenodd" clip-rule="evenodd" d="M123.761 44.6074L106.462 14.4417L84.4507 27.1088L102.189 57.6944L103.639 58.8646L123.761 44.6074ZM105.967 16.2682L121.837 44.0409L103.493 57.0203L86.2781 27.599L105.967 16.2682Z" fill="black"/>
    <path fill-rule="evenodd" clip-rule="evenodd" d="M124.901 89.3622V174.307L141.69 164.612V82.6379L124.901 89.3622Z" fill="black"/>
    <path fill-rule="evenodd" clip-rule="evenodd" d="M107.316 163.341L124.464 173.357V88.7575L130.081 92.106L116.122 67.6042L101.828 75.6127L107.316 78.7913V163.341Z" fill="#34C759"/>
    <path fill-rule="evenodd" clip-rule="evenodd" d="M130.88 93.4323L116.328 66.8636L100.726 75.6048L106.771 79.1066L106.772 163.654L125.009 174.307L125.009 89.7177L130.88 93.4323ZM115.917 68.3448L128.936 91.3271L123.919 87.5123L123.919 172.406L107.861 163.027L107.862 78.4765L102.93 75.6207L115.917 68.3448Z" fill="black"/>
    <path fill-rule="evenodd" clip-rule="evenodd" d="M130.881 93.4323L146.522 81.8626L132.984 57.8948L115.955 67.6951L130.881 93.4323Z" fill="#34C759"/>
    <path fill-rule="evenodd" clip-rule="evenodd" d="M147.316 81.7874L133.186 57.1489L115.208 67.4951L129.696 92.4765L130.88 93.4323L147.316 81.7874ZM132.782 58.6408L145.744 81.3247L130.761 91.9259L116.701 67.8954L132.782 58.6408Z" fill="black"/>
</svg>
