<svg width="188" height="189" viewBox="0 0 188 189" fill="none" xmlns="http://www.w3.org/2000/svg">
    <path d="M164.521 110.318V101.492L154.707 101.708L105.523 72.9623C103.574 71.8366 101.362 71.244 99.1109 71.244C96.8596 71.244 94.648 71.8366 92.6983 72.9623L39.9485 103.186L23.4348 106.272V115.192C23.3435 116.14 23.5286 117.094 23.9678 117.939C24.4069 118.784 25.0813 119.484 25.9095 119.953L82.3667 152.887C84.3146 154.012 86.5247 154.605 88.7746 154.605C91.0244 154.605 93.2345 154.012 95.1824 152.887L161.99 114.562C162.736 114.136 163.358 113.523 163.795 112.784C164.232 112.045 164.469 111.205 164.484 110.346L164.521 110.318Z" fill="#34C759"/>
    <path d="M88.8111 155.07C86.499 155.063 84.2287 154.453 82.2244 153.301L25.7202 120.367C24.8241 119.852 24.0945 119.091 23.6175 118.174C23.1406 117.256 22.9364 116.222 23.0291 115.192V105.943L39.8345 102.809L92.5278 72.6235C94.5452 71.4654 96.8307 70.856 99.1569 70.856C101.483 70.856 103.769 71.4654 105.786 72.6235L154.866 101.323L165 101.087V110.845C164.922 111.707 164.637 112.537 164.168 113.265C163.7 113.993 163.062 114.596 162.309 115.023L95.5013 153.348C93.4625 154.503 91.1541 155.097 88.8111 155.07ZM23.8854 106.63V115.183C23.8005 116.052 23.9684 116.927 24.3691 117.704C24.7697 118.48 25.3859 119.124 26.1437 119.558L82.6008 152.492C84.4848 153.574 86.6195 154.143 88.7923 154.143C90.965 154.143 93.0997 153.574 94.9837 152.492L161.791 114.176C162.471 113.786 163.038 113.226 163.437 112.552C163.836 111.877 164.054 111.111 164.068 110.327V101.859L154.584 102.066L105.287 73.2539C103.405 72.1716 101.272 71.602 99.1004 71.602C96.9292 71.602 94.7959 72.1716 92.9136 73.2539L40.0886 103.515H40.0133L23.8854 106.63Z" fill="#34C759"/>
    <path d="M25.9089 109.749L82.3661 142.683C84.314 143.808 86.5241 144.401 88.7739 144.401C91.0238 144.401 93.2339 143.808 95.1818 142.683L161.989 104.358C162.752 103.92 163.385 103.289 163.826 102.528C164.266 101.767 164.498 100.904 164.498 100.024C164.498 99.1453 164.266 98.2818 163.826 97.521C163.385 96.7602 162.752 96.1291 161.989 95.6914L105.532 62.758C103.583 61.6324 101.371 61.0398 99.1197 61.0398C96.8684 61.0398 94.6568 61.6324 92.7071 62.758L25.8995 101.083C25.1376 101.522 24.5049 102.153 24.0652 102.915C23.6256 103.676 23.3946 104.54 23.3955 105.419C23.3965 106.298 23.6293 107.161 24.0706 107.922C24.5119 108.682 25.1461 109.312 25.9089 109.749Z" fill="black"/>
    <path d="M88.8104 144.875C86.4984 144.869 84.228 144.259 82.2238 143.106L25.7196 110.173C24.8929 109.697 24.2063 109.011 23.7288 108.185C23.2514 107.359 23 106.422 23 105.468C23 104.514 23.2514 103.577 23.7288 102.751C24.2063 101.925 24.8929 101.239 25.7196 100.763L92.5272 62.4384C94.5451 61.2821 96.8305 60.6737 99.1562 60.6737C101.482 60.6737 103.767 61.2821 105.785 62.4384L162.242 95.4188C163.067 95.8968 163.751 96.583 164.227 97.4087C164.702 98.2344 164.953 99.1706 164.953 100.124C164.953 101.076 164.702 102.013 164.227 102.838C163.751 103.664 163.067 104.35 162.242 104.828L95.4347 143.144C93.4163 144.291 91.132 144.888 88.8104 144.875ZM99.1044 61.488C96.9342 61.4888 94.8024 62.0599 92.9224 63.1441L26.1148 101.46C25.4189 101.86 24.8408 102.436 24.4389 103.131C24.0369 103.825 23.8252 104.614 23.8252 105.416C23.8252 106.219 24.0369 107.007 24.4389 107.702C24.8408 108.397 25.4189 108.973 26.1148 109.373L82.5719 142.306C84.4559 143.389 86.5907 143.958 88.7634 143.958C90.9361 143.958 93.0709 143.389 94.9549 142.306L161.762 103.991C162.456 103.59 163.032 103.014 163.433 102.32C163.833 101.627 164.044 100.84 164.044 100.039C164.044 99.2378 163.833 98.4509 163.433 97.7572C163.032 97.0635 162.456 96.4874 161.762 96.0868L105.258 63.1065C103.383 62.0406 101.262 61.4827 99.1044 61.488Z" fill="#34C759"/>
    <path d="M133.365 64.7155L137.42 62.0903L133.365 61.9209L132.875 62.3726L132.527 63.7652L133.365 64.7061V64.7155Z" fill="#34C759"/>
    <path d="M140.195 41.813L127.549 34.5112C127.279 34.318 126.966 34.1961 126.637 34.1566C126.308 34.1171 125.974 34.1614 125.667 34.2854L121.583 36.8259V36.8824C121.771 37.2588 123.465 40.8532 123.644 41.5213C123.71 41.7941 124.246 44.5417 124.867 47.741V49.3406C124.894 50.3412 125.19 51.3161 125.723 52.1634C126.372 55.5038 126.918 58.3455 126.937 58.4208L132.752 60.378H133.157C133.161 60.3691 133.163 60.3595 133.163 60.3497C133.163 60.34 133.161 60.3303 133.157 60.3215L132.837 59.3805C132.746 58.9209 132.686 58.4556 132.658 57.9879L138.116 64.0571C138.116 64.0571 138.116 64.0571 138.172 64.0571L142.133 61.573H142.199C142.463 61.3716 142.671 61.1058 142.803 60.8009C142.935 60.4961 142.986 60.1625 142.952 59.8322V46.5836C142.897 45.6283 142.619 44.6992 142.14 43.8708C141.661 43.0423 140.995 42.3376 140.195 41.813Z" fill="#34C759"/>
    <path d="M138.126 64.396C138.069 64.3976 138.012 64.3866 137.96 64.3638C137.908 64.341 137.862 64.307 137.825 64.2643L133.12 59.0043C133.12 59.0984 133.12 59.1925 133.167 59.2866L133.477 60.1523C133.507 60.2393 133.505 60.3338 133.472 60.4197C133.44 60.5055 133.378 60.5774 133.299 60.6228H133.223H132.659L126.627 58.5903L126.571 58.4304C126.571 58.2986 125.997 55.4852 125.357 52.173C124.819 51.2959 124.517 50.2941 124.482 49.2655V47.7788C123.729 43.9115 123.324 41.832 123.268 41.5967C123.164 41.1545 122.167 38.9809 121.236 37.0331C121.191 36.9452 121.182 36.8436 121.21 36.7491C121.238 36.6546 121.301 36.5744 121.386 36.525L125.517 33.975C125.878 33.8225 126.271 33.7632 126.661 33.8026C127.05 33.8421 127.424 33.9791 127.747 34.2008L140.403 41.5026C141.257 42.059 141.968 42.8092 142.478 43.692C142.989 44.5749 143.283 45.5656 143.338 46.5838V59.823C143.372 60.2156 143.303 60.6102 143.138 60.9681C142.973 61.326 142.718 61.635 142.398 61.8648H142.322L138.333 64.396C138.265 64.4127 138.194 64.4127 138.126 64.396ZM132.226 56.9813L138.182 63.568L141.946 61.2438L142.2 61.4979L142.012 61.2062C142.224 61.0339 142.39 60.8109 142.494 60.5576C142.597 60.3043 142.635 60.029 142.605 59.7571V46.5838C142.548 45.6893 142.286 44.82 141.838 44.0432C141.391 43.2665 140.771 42.6032 140.026 42.1048L127.371 34.8031C127.154 34.6448 126.901 34.5422 126.635 34.5045C126.37 34.4667 126.099 34.495 125.846 34.5866L121.969 36.9767C122.515 38.1246 123.785 40.8251 123.927 41.4368C123.983 41.6814 124.388 43.7233 125.159 47.6753V49.3408C125.196 50.2611 125.472 51.156 125.959 51.9378V52.0695C126.514 54.8924 126.994 57.4141 127.126 58.1199L132.583 59.9547L132.405 59.4466C132.31 58.9686 132.25 58.4843 132.226 57.9975V56.9813Z" fill="#34C759"/>
    <path d="M123.465 37.0141L136.14 44.3253C136.93 44.8426 137.588 45.5375 138.062 46.3543C138.535 47.1712 138.812 48.0874 138.869 49.03V62.2975C138.869 64.0382 137.645 64.7533 136.14 63.8782L134.757 63.0784C134.503 62.9279 134.277 63.0126 134.22 63.276C134.07 64.0758 133.496 65.5155 131.445 64.6781C131.238 64.5675 131.069 64.3967 130.962 64.1883C130.854 63.98 130.813 63.7439 130.842 63.5113C131.032 62.9019 131.131 62.2677 131.134 61.6294C131.124 61.4405 131.069 61.2568 130.974 61.0932C130.88 60.9296 130.747 60.7909 130.588 60.6884L123.465 56.5953C122.671 56.0812 122.01 55.3873 121.534 54.5699C121.059 53.7526 120.782 52.8347 120.727 51.8905V38.5949C120.746 36.8447 121.969 36.1672 123.465 37.0141Z" fill="black"/>
    <path d="M132.526 65.2804C132.092 65.269 131.663 65.1731 131.265 64.9981C130.974 64.8598 130.737 64.6283 130.593 64.3403C130.448 64.0523 130.403 63.7242 130.466 63.4079C130.644 62.8287 130.736 62.2262 130.738 61.6201C130.727 61.4922 130.687 61.3685 130.622 61.2578C130.557 61.1471 130.468 61.0523 130.362 60.9803L123.305 56.8683C122.454 56.3197 121.746 55.5759 121.24 54.6987C120.735 53.8215 120.446 52.8362 120.397 51.8248V38.595C120.326 38.1895 120.38 37.7718 120.555 37.3986C120.729 37.0254 121.013 36.7149 121.37 36.5092C121.727 36.3036 122.138 36.2129 122.548 36.2493C122.959 36.2858 123.348 36.4477 123.662 36.7131L136.328 44.0243C137.181 44.5705 137.89 45.3138 138.396 46.1915C138.902 47.0692 139.19 48.0557 139.235 49.0678V62.3352C139.305 62.739 139.249 63.1545 139.075 63.5255C138.901 63.8966 138.618 64.2055 138.263 64.4105C137.908 64.6156 137.499 64.707 137.091 64.6724C136.683 64.6378 136.295 64.4789 135.98 64.2171L134.54 63.3891C134.488 63.7324 134.363 64.0606 134.173 64.3512C133.983 64.6418 133.733 64.8881 133.439 65.0734C133.159 65.2231 132.844 65.2946 132.526 65.2804ZM122.26 36.986C122.072 36.9834 121.887 37.0322 121.724 37.1271C121.499 37.2944 121.322 37.5183 121.211 37.7761C121.1 38.034 121.06 38.3165 121.094 38.595V51.8624C121.142 52.7514 121.4 53.6163 121.847 54.3865C122.293 55.1567 122.915 55.8104 123.662 56.2943L130.72 60.3686C130.932 60.504 131.108 60.6883 131.234 60.9061C131.36 61.1239 131.432 61.3687 131.444 61.6201C131.435 62.2963 131.331 62.9679 131.134 63.6149C131.125 63.7619 131.157 63.9085 131.227 64.0382C131.296 64.1679 131.401 64.2755 131.529 64.3489C131.767 64.4772 132.029 64.5529 132.299 64.5707C132.568 64.5886 132.838 64.5482 133.091 64.4524C133.294 64.3086 133.466 64.1238 133.594 63.9099C133.722 63.696 133.804 63.4577 133.834 63.2103C133.851 63.1037 133.893 63.0027 133.956 62.9159C134.02 62.829 134.104 62.7589 134.201 62.7116C134.313 62.667 134.433 62.6497 134.553 62.6612C134.672 62.6727 134.787 62.7125 134.888 62.7775L136.328 63.6149C136.538 63.8014 136.802 63.9167 137.083 63.9443C137.363 63.9719 137.644 63.9104 137.887 63.7685C138.13 63.6267 138.322 63.4118 138.436 63.1544C138.549 62.8971 138.579 62.6104 138.52 62.3352V49.0678C138.475 48.1814 138.221 47.3181 137.78 46.5481C137.338 45.778 136.722 45.1229 135.98 44.6359L123.305 37.3153C122.991 37.1178 122.631 37.0044 122.26 36.986Z" fill="#34C759"/>
    <path d="M133.817 57.9787C133.676 57.9778 133.539 57.9352 133.422 57.8564L125.894 53.5186C125.655 53.3483 125.459 53.1242 125.321 52.8644C125.184 52.6046 125.11 52.3163 125.104 52.0225V43.5539C125.092 43.4068 125.119 43.259 125.181 43.1253C125.244 42.9916 125.341 42.8766 125.461 42.7918C125.568 42.7279 125.69 42.6942 125.814 42.6942C125.939 42.6942 126.061 42.7279 126.167 42.7918L133.695 47.1296C133.936 47.2989 134.134 47.5225 134.273 47.7824C134.412 48.0422 134.488 48.3311 134.495 48.6257V57.0942C134.508 57.2425 134.48 57.3916 134.416 57.5257C134.351 57.6599 134.252 57.7741 134.128 57.8564C134.038 57.9266 133.93 57.9691 133.817 57.9787ZM125.772 43.2717C125.772 43.2717 125.678 43.3846 125.678 43.5728V52.0413C125.682 52.2411 125.732 52.4372 125.823 52.6149C125.914 52.7926 126.045 52.9472 126.205 53.067L133.732 57.4142C133.784 57.4321 133.841 57.4321 133.892 57.4142C133.892 57.4142 133.986 57.3013 133.986 57.1131V48.6445C133.982 48.4458 133.933 48.2506 133.844 48.0732C133.754 47.8958 133.626 47.7406 133.469 47.6189L125.941 43.2717C125.895 43.2583 125.846 43.2583 125.8 43.2717H125.772Z" fill="#34C759"/>
    <g clip-path="url(#clip0_212_4676)">
        <path d="M129.971 47.8917L129.936 48.0109V51.4679L129.971 51.5028L131.575 50.5543L129.971 47.8917Z" fill="#34C759"/>
        <path d="M129.97 47.8917L128.366 50.5543L129.97 51.5028V49.8249V47.8917Z" fill="#34C759"/>
        <path d="M129.97 51.8067L129.951 51.8308V53.0622L129.97 53.1199L131.576 50.8586L129.97 51.8067Z" fill="#34C759"/>
        <path d="M129.97 53.1199V51.8067L128.366 50.8586L129.97 53.1199Z" fill="#34C759"/>
        <path d="M129.97 51.5029L131.575 50.5543L129.97 49.825V51.5029Z" fill="#26863E"/>
        <path d="M128.366 50.5543L129.97 51.5029V49.825L128.366 50.5543Z" fill="#26863E"/>
    </g>
    <path d="M55.7046 78.948C55.6269 78.9481 55.55 78.9321 55.4788 78.901C55.387 78.8699 55.3036 78.8181 55.235 78.7496C55.1665 78.681 55.1147 78.5976 55.0836 78.5058L52.2608 70.9782L45.9093 67.3179C45.9915 68.7901 46.4134 70.2232 47.142 71.5051C47.2344 71.6516 47.2728 71.8258 47.2505 71.9976C47.2281 72.1694 47.1465 72.328 47.0196 72.4461C46.9025 72.5408 46.7563 72.5924 46.6056 72.5924C46.4549 72.5924 46.3088 72.5408 46.1916 72.4461C43.4241 70.5865 41.498 67.7142 40.8282 64.448L40.7341 64.3162L37.516 62.4343C36.767 61.9554 36.1437 61.3039 35.6983 60.5344C35.253 59.765 34.9987 58.8999 34.9566 58.0119V49.1481L29.8661 43.7658C29.7976 43.692 29.7467 43.6036 29.7172 43.5072C29.6878 43.4109 29.6804 43.3092 29.6958 43.2096C29.7112 43.1101 29.7489 43.0153 29.8061 42.9324C29.8633 42.8495 29.9385 42.7805 30.0261 42.7308L34.3733 40.1338C34.698 40.0002 35.0506 39.9483 35.4 39.9828C35.7495 40.0172 36.0851 40.1369 36.3775 40.3314L58.6686 53.1848C59.4161 53.6654 60.0382 54.3173 60.4833 55.0864C60.9284 55.8555 61.1837 56.7197 61.228 57.6072V74.3938C61.2602 74.7529 61.2002 75.1142 61.0536 75.4435C60.9071 75.7728 60.6788 76.0593 60.3906 76.2757L56.0622 78.8916C55.9493 78.9388 55.8266 78.9582 55.7046 78.948ZM45.834 66.0382L53.1076 70.2348L53.2299 70.4795L55.921 77.6589L59.7884 75.3254C59.9141 75.206 60.0095 75.0583 60.0667 74.8947C60.124 74.7311 60.1415 74.5561 60.1177 74.3844V57.6072C60.0742 56.9118 59.8707 56.2358 59.523 55.6319C59.1754 55.0281 58.693 54.5126 58.1135 54.1257L35.8411 41.2723C35.7064 41.1765 35.5526 41.111 35.3902 41.0801C35.2278 41.0492 35.0606 41.0538 34.9002 41.0935L31.0611 43.3989L35.8976 48.5176C35.9582 48.578 36.0061 48.6499 36.0384 48.7291C36.0707 48.8083 36.0868 48.8932 36.0858 48.9787V58.0683C36.1279 58.7641 36.3308 59.4406 36.6786 60.0447C37.0263 60.6488 37.5095 61.164 38.09 61.5498L41.5151 63.5258L41.8915 64.0528V64.1751C42.3772 66.6386 43.6404 68.8813 45.4953 70.5736C44.962 69.3686 44.7544 68.0448 44.8931 66.7345L44.9402 66.4428L45.834 66.0382Z" fill="#34C759"/>
    <path d="M54.0114 56.3559L31.6826 43.4649C30.4499 42.7591 29.4619 43.3331 29.4619 44.7445V61.6064C29.5036 62.3773 29.7264 63.1275 30.1122 63.7961C30.498 64.4648 31.036 65.0331 31.6826 65.4549L35.117 67.4309C35.162 67.4628 35.2002 67.5034 35.2293 67.5502C35.2584 67.5971 35.2778 67.6493 35.2864 67.7038C35.909 70.8823 37.7668 73.6842 40.4523 75.4949C40.6122 75.5984 40.7251 75.4384 40.6216 75.2408C40.0665 74.1869 39.0032 71.8534 39.4172 70.0844C39.4172 69.9997 39.5207 69.9809 39.6054 70.0279L54.0114 78.3459C55.2346 79.0517 56.232 78.4777 56.232 77.0662V60.2232C56.1933 59.4491 55.9718 58.6952 55.5859 58.023C55.1999 57.3509 54.6604 56.7796 54.0114 56.3559Z" fill="black"/>
    <path d="M42.6573 53.6429L42.5659 53.9534V62.9616L42.6573 63.0528L46.8387 60.5811L42.6573 53.6429Z" fill="#34C759"/>
    <path d="M42.6576 53.6429L38.4761 60.5811L42.6576 63.0528V58.6805V53.6429Z" fill="#34C759"/>
    <path d="M42.658 63.8447L42.6064 63.9075V67.1163L42.658 67.2667L46.8419 61.3743L42.658 63.8447Z" fill="#34C759"/>
    <path d="M42.6576 67.2667V63.8447L38.4761 61.3743L42.6576 67.2667Z" fill="#34C759"/>
    <path d="M42.6558 63.0525L46.8372 60.5808L42.6558 58.6802V63.0525Z" fill="#26863E"/>
    <path d="M38.4761 60.5808L42.6576 63.0525V58.6802L38.4761 60.5808Z" fill="#26863E"/>
    <path d="M54.9991 79.1928C54.5536 79.1769 54.1195 79.0473 53.7382 78.8165L39.8497 70.809C39.9257 72.2792 40.3481 73.7107 41.0824 74.9868C41.1731 75.1338 41.2104 75.3076 41.1881 75.479C41.1659 75.6503 41.0853 75.8088 40.96 75.9277C40.8428 76.0225 40.6967 76.0741 40.546 76.0741C40.3953 76.0741 40.2492 76.0225 40.132 75.9277C37.3506 74.0446 35.4183 71.1461 34.7498 67.8544L31.3812 65.9254C30.6512 65.4566 30.044 64.8199 29.6102 64.0686C29.1764 63.3172 28.9287 62.473 28.8876 61.6064V44.7446C28.8306 44.3699 28.888 43.9867 29.0524 43.6451C29.2168 43.3036 29.4805 43.0197 29.809 42.8305C30.1374 42.6414 30.5154 42.5558 30.8933 42.5851C31.2712 42.6143 31.6314 42.757 31.9269 42.9944L54.2557 55.8855C54.9947 56.3524 55.6104 56.9903 56.0509 57.7453C56.4915 58.5003 56.7439 59.3502 56.7869 60.2232V77.0663C56.8136 77.4356 56.7403 77.8052 56.5747 78.1364C56.4091 78.4675 56.1574 78.748 55.8459 78.9482C55.5904 79.1035 55.2981 79.1879 54.9991 79.1928ZM39.5204 69.454C39.6466 69.4563 39.77 69.492 39.878 69.5575L54.2839 77.8755C54.4282 77.9852 54.598 78.0566 54.7774 78.0829C54.9567 78.1092 55.1398 78.0897 55.3096 78.0261C55.4463 77.9135 55.5525 77.7683 55.6183 77.6038C55.6841 77.4393 55.7073 77.2609 55.6859 77.0851V60.2232C55.6439 59.5481 55.4461 58.8918 55.1082 58.3058C54.7703 57.7198 54.3014 57.2199 53.7382 56.8452L31.3812 43.9354C31.2362 43.8272 31.067 43.756 30.8882 43.7281C30.7094 43.7003 30.5266 43.7165 30.3555 43.7754C30.219 43.8886 30.1125 44.0337 30.0452 44.1977C29.9779 44.3618 29.952 44.5399 29.9697 44.7163V61.5782C30.0122 62.2544 30.211 62.9114 30.5507 63.4976C30.8903 64.0838 31.3614 64.5831 31.9269 64.9562L35.3614 66.9416C35.4747 67.0116 35.5719 67.1048 35.6465 67.2151C35.7211 67.3254 35.7715 67.4503 35.7942 67.5815C36.2813 70.0536 37.5555 72.3016 39.4263 73.9894C38.8505 72.7204 38.6545 71.3119 38.8617 69.9339C38.8831 69.8337 38.9285 69.7402 38.994 69.6615C39.0596 69.5828 39.1434 69.5212 39.2381 69.4822C39.3283 69.4489 39.4254 69.4392 39.5204 69.454Z" fill="#34C759"/>
    <path d="M117.077 98.5134L98.0702 96.9514L95.2944 98.8333C91.3528 99.0897 87.5075 100.163 84.003 101.986C82.9617 102.555 81.9839 103.233 81.086 104.009L77.6704 103.397V110.586C77.6704 113.635 79.6841 116.683 83.7019 119.054C91.7659 123.759 104.855 123.759 112.937 119.054C113.804 118.555 114.625 117.982 115.393 117.342V110.162L106.36 108.544L117.134 105.721V98.5416L117.077 98.5134Z" fill="#34C759"/>
    <path d="M77.0972 103.143L77.5018 102.842L77.737 102.889L80.8892 103.453C81.7676 102.737 82.7129 102.107 83.7121 101.572C87.2495 99.7232 91.1338 98.6335 95.1164 98.3723L97.9393 96.4904H98.1369L117.615 98.09V98.551V106.079L117.266 106.21L108.657 108.44L115.855 109.73V117.558L115.714 117.709C114.91 118.39 114.047 118.997 113.136 119.525C104.931 124.23 91.5878 124.23 83.3921 119.525C79.4684 117.257 77.2477 114.227 77.1066 110.972V103.209L77.0972 103.143ZM98.2027 97.4972L95.3799 99.3791C91.4783 99.6184 87.6702 100.673 84.2014 102.475C83.1945 103.027 82.2484 103.683 81.3785 104.432L81.1715 104.611L80.8986 104.545L78.0758 104.046V110.633C78.0758 113.625 80.1364 116.457 83.8532 118.612C91.7572 123.195 104.639 123.213 112.562 118.659C113.338 118.214 114.078 117.708 114.773 117.144V110.614L105.749 109.005V108.177L106.144 108.055L116.551 105.345V99.0309L98.2027 97.4972Z" fill="#34C759"/>
    <path d="M98.304 103.406L117.067 98.5132C115.457 96.5764 113.404 95.0561 111.082 94.0813C103.065 90.421 91.3221 90.7221 83.9545 94.7964C75.5894 99.4353 75.4859 107.113 83.6439 111.837C91.802 116.561 104.787 116.542 112.87 111.837C113.733 111.338 114.552 110.765 115.316 110.125L98.304 103.397C98.304 103.397 98.2946 103.406 98.304 103.406Z" fill="black"/>
    <path d="M78.5081 98.8801C79.8565 96.9693 81.6444 95.4106 83.721 94.3352C91.2486 90.1762 103.105 89.8563 111.31 93.6013C113.705 94.6121 115.822 96.1837 117.482 98.1837L117.642 98.3813L117.511 98.8988L117.209 99.0306L99.896 103.547L115.732 109.804L115.855 110.378L115.629 110.585C114.837 111.244 113.99 111.833 113.098 112.345C104.892 117.05 91.5497 117.05 83.354 112.345C79.2609 109.974 77.0214 106.793 77.0591 103.387C77.0842 101.774 77.5887 100.205 78.5081 98.8801ZM116.146 98.2214C114.654 96.6501 112.858 95.3984 110.867 94.5422C102.926 90.9196 91.4651 91.2207 84.2009 95.2385C80.296 97.4027 78.1412 100.273 78.1035 103.331C78.0659 106.389 80.136 109.202 83.8904 111.385C91.7944 115.968 104.676 115.987 112.599 111.385C113.19 111.048 113.758 110.674 114.302 110.266L97.7506 103.679V102.917L98.1176 102.823L116.146 98.2214Z" fill="#34C759"/>
    <path d="M97.666 103.35L98.1553 102.794L98.5129 102.954L115.751 109.767L115.864 110.36L115.629 110.586C114.852 111.237 114.017 111.816 113.135 112.317C110.367 113.851 107.351 114.886 104.224 115.375L103.848 115.441L97.666 103.35ZM114.321 110.303L99.3315 104.394L104.394 114.293C107.267 113.802 110.038 112.832 112.59 111.423C113.191 111.095 113.769 110.728 114.321 110.322V110.303Z" fill="#34C759"/>
    <path d="M97.76 103.058L98.5693 102.851L98.7575 103.228L104.911 115.244L104.215 115.366C102.247 115.698 100.255 115.865 98.2587 115.865H97.7412L97.76 103.058ZM103.349 114.463L98.7857 105.552V114.829C100.313 114.802 101.837 114.679 103.349 114.463Z" fill="#34C759"/>
    <path d="M97.9479 102.917L98.8229 103.067V103.51V115.883H98.3054C96.8899 115.884 95.4757 115.796 94.0711 115.62L93.4219 115.544L97.9479 102.917ZM97.7785 114.848V106.38L94.8051 114.641C95.8119 114.773 96.8093 114.829 97.7785 114.848Z" fill="#34C759"/>
    <path d="M112.107 99.8525L112.094 107.051L113.129 107.053L113.142 99.8543L112.107 99.8525Z" fill="#34C759"/>
    <path d="M98.042 88.1059C100.827 87.9027 103.626 88.2218 106.294 89.0469L105.965 89.9878C103.431 89.2165 100.778 88.9167 98.1361 89.1033L98.042 88.1059Z" fill="#34C759"/>
    <path d="M97.9287 95.5492L102.633 92.5194L97.9287 92.3218L97.3641 92.8393L96.9595 94.4483L97.9004 95.5398L97.9287 95.5492Z" fill="#34C759"/>
    <path d="M97.863 96.076L97.6184 95.8314L96.4893 94.5705V94.3447L96.9315 92.6133L97.0068 92.5287L97.7125 91.8888H97.8818L102.888 92.0958L103.067 92.6792L102.812 92.858L97.863 96.076ZM97.3738 94.3447L97.9948 95.0316L101.382 92.8392L98.0701 92.7075L97.7031 93.0368L97.3738 94.3447Z" fill="#34C759"/>
    <path d="M105.851 68.9861L91.182 60.5175C90.8709 60.2984 90.51 60.1604 90.1321 60.1161C89.7542 60.0717 89.3712 60.1224 89.0178 60.2634L84.2754 63.218V63.2745C84.4918 63.7261 86.4866 67.8851 86.6654 68.6567C86.7407 68.9766 87.3617 72.1665 88.0862 75.8738V77.7558C88.1118 78.8925 88.4364 80.0023 89.0272 80.9738L90.4386 88.2286L97.1758 90.5056H97.6557C97.6615 90.4956 97.6645 90.4843 97.6645 90.4727C97.6645 90.4612 97.6615 90.4498 97.6557 90.4398L97.2887 89.3953C97.1885 88.8603 97.1193 88.3199 97.0817 87.7769L103.414 94.8152H103.48L108.1 91.9924H108.176C108.483 91.7585 108.726 91.4498 108.881 91.0957C109.035 90.7417 109.097 90.3539 109.06 89.9693V74.5659C109.003 73.4487 108.683 72.3609 108.125 71.3912C107.567 70.4214 106.788 69.5973 105.851 68.9861Z" fill="#34C759"/>
    <path d="M103.443 95.2668C103.379 95.2671 103.315 95.2539 103.257 95.2279C103.199 95.2019 103.146 95.1639 103.104 95.1163L97.6181 89.0095L97.6745 89.3483L98.0321 90.3457C98.0685 90.4454 98.0687 90.5547 98.0326 90.6545C97.9965 90.7543 97.9263 90.8381 97.8345 90.8914L97.7404 90.9478H97.0911L90.0905 88.5861L90.0246 88.3979L89.9305 87.918L88.6132 81.1431C87.991 80.1266 87.6441 78.9657 87.6064 77.7745V75.9491C86.7595 71.6019 86.2608 69.0613 86.1949 68.7884C86.0726 68.2709 84.887 65.6833 83.8331 63.4909C83.7867 63.3885 83.7793 63.2728 83.8122 63.1654C83.8452 63.058 83.9162 62.9662 84.0119 62.9075L88.8108 59.9529C89.2266 59.7722 89.6817 59.7008 90.1328 59.7453C90.584 59.7897 91.0164 59.9486 91.389 60.2069L106.058 68.6755C107.047 69.322 107.87 70.192 108.46 71.2153C109.05 72.2386 109.391 73.3864 109.455 74.5659V89.9222C109.496 90.3751 109.419 90.8309 109.231 91.2449C109.043 91.6589 108.751 92.017 108.383 92.284L108.289 92.3405L103.687 95.1633C103.618 95.2216 103.533 95.2576 103.443 95.2668ZM96.6113 86.6759L103.508 94.3541L107.884 91.6536L108.147 91.9641L107.95 91.6065C108.197 91.4086 108.391 91.1514 108.513 90.8585C108.635 90.5657 108.681 90.2469 108.646 89.9317V74.5659C108.581 73.5284 108.276 72.5201 107.755 71.6205C107.234 70.7208 106.512 69.9543 105.644 69.3812L90.9844 60.9127C90.7326 60.7254 90.438 60.6041 90.1274 60.5597C89.8169 60.5154 89.5001 60.5493 89.206 60.6586L84.7082 63.4814C85.2728 64.6576 86.816 67.9322 86.9853 68.6473C87.07 69.0143 87.804 72.7781 88.4062 75.8738V77.8216C88.452 78.8901 88.7764 79.9281 89.3471 80.8326V80.8985L90.7209 88.0027L97.0441 90.1386L96.8371 89.5364C96.7328 88.983 96.6637 88.4237 96.6301 87.8615L96.6113 86.6759Z" fill="#34C759"/>
    <path d="M86.4689 63.4346L101.167 71.9032C102.089 72.5058 102.857 73.3174 103.408 74.2721C103.959 75.2268 104.278 76.2978 104.338 77.3984V92.7923C104.338 94.806 102.917 95.6152 101.167 94.6178L99.4917 93.6768C99.1906 93.5074 98.9271 93.6015 98.8706 93.9121C98.6918 94.853 98.0332 96.5091 95.6431 95.5305C95.4019 95.4035 95.2057 95.2054 95.0811 94.9629C94.9566 94.7205 94.9097 94.4456 94.9468 94.1755C95.1718 93.4665 95.2861 92.727 95.2856 91.9831C95.2753 91.7641 95.2126 91.5507 95.1029 91.3608C94.9933 91.1709 94.8397 91.01 94.6552 90.8916L86.4689 86.1868C85.546 85.5841 84.778 84.7726 84.2271 83.818C83.6762 82.8633 83.3579 81.7923 83.2979 80.6917V65.2601C83.3355 63.2746 84.7187 62.4184 86.4689 63.4346Z" fill="black"/>
    <path d="M96.9499 96.208C96.4471 96.1925 95.952 96.0807 95.4914 95.8787C95.1475 95.7144 94.8683 95.4401 94.6978 95.0992C94.5274 94.7584 94.4755 94.3704 94.5505 93.9968C94.7587 93.3263 94.8665 92.6287 94.8704 91.9267C94.8576 91.7785 94.8122 91.635 94.7373 91.5064C94.6625 91.3779 94.5601 91.2675 94.4375 91.1833L86.2513 86.4785C85.2646 85.8436 84.444 84.982 83.858 83.9656C83.272 82.9491 82.9376 81.8072 82.8826 80.6352V65.2601C82.8098 64.7952 82.8792 64.3192 83.0817 63.8945C83.2841 63.4698 83.6103 63.1162 84.0173 62.8802C84.4243 62.6441 84.8931 62.5366 85.3623 62.5717C85.8315 62.6068 86.2791 62.783 86.6464 63.077L101.335 71.5456C102.323 72.18 103.145 73.0413 103.732 74.0577C104.32 75.0741 104.656 76.2163 104.713 77.3889V92.7829C104.788 93.2485 104.721 93.726 104.519 94.1522C104.317 94.5783 103.989 94.9329 103.581 95.1688C103.173 95.4047 102.702 95.5107 102.232 95.4728C101.762 95.4349 101.314 95.2548 100.949 94.9565L99.274 94.0156C99.214 94.4135 99.0696 94.794 98.8506 95.1316C98.6315 95.4691 98.3427 95.7559 98.0037 95.9727C97.6783 96.1397 97.3155 96.2207 96.9499 96.208ZM85.0562 63.397C84.8353 63.3905 84.6169 63.4459 84.4258 63.5569C84.17 63.7535 83.969 64.0125 83.8421 64.3091C83.7153 64.6057 83.6668 64.9299 83.7013 65.2506V80.6447C83.7602 81.674 84.06 82.6751 84.5764 83.5674C85.0929 84.4597 85.8115 85.2183 86.6747 85.7822L94.8515 90.487C95.0996 90.6441 95.3061 90.8587 95.4535 91.1126C95.6009 91.3665 95.685 91.6522 95.6984 91.9454C95.6904 92.7271 95.57 93.5035 95.3409 94.2508C95.3324 94.422 95.3709 94.5922 95.4522 94.7431C95.5334 94.8941 95.6544 95.0199 95.8019 95.1071C96.0764 95.257 96.3805 95.3449 96.6927 95.3644C97.0048 95.3839 97.3175 95.3346 97.6086 95.22C97.8442 95.0526 98.0428 94.8383 98.1917 94.5906C98.3407 94.3428 98.4369 94.067 98.4742 93.7803C98.4918 93.6571 98.5397 93.5401 98.6136 93.44C98.6875 93.3398 98.7851 93.2596 98.8977 93.2063C99.0257 93.1541 99.1644 93.1337 99.3021 93.1468C99.4397 93.16 99.5722 93.2062 99.6881 93.2816L101.363 94.2226C101.604 94.4497 101.913 94.593 102.242 94.6313C102.571 94.6695 102.904 94.6007 103.192 94.4349C103.479 94.2692 103.705 94.0153 103.836 93.711C103.968 93.4067 103.998 93.0681 103.922 92.7453V77.3889C103.864 76.3605 103.566 75.3599 103.051 74.4676C102.537 73.5754 101.82 72.8163 100.958 72.2513L86.2606 63.7828C85.8992 63.5537 85.4838 63.424 85.0562 63.4064V63.397Z" fill="#34C759"/>
    <path d="M98.4855 87.8427C98.323 87.8394 98.1641 87.794 98.0244 87.711L89.3018 82.6769C89.0185 82.4839 88.7854 82.2262 88.6218 81.9251C88.4581 81.6239 88.3687 81.2882 88.3608 80.9456V71.1408C88.3433 70.9687 88.3735 70.7951 88.4482 70.639C88.5229 70.483 88.6392 70.3506 88.7843 70.2563C88.9066 70.1834 89.0464 70.1449 89.1889 70.1449C89.3313 70.1449 89.4711 70.1834 89.5935 70.2563L98.3161 75.2904C98.5993 75.4834 98.8324 75.7411 98.9961 76.0422C99.1597 76.3433 99.2492 76.6791 99.2571 77.0218V86.8265C99.2746 86.9986 99.2443 87.1722 99.1696 87.3282C99.0949 87.4843 98.9787 87.6167 98.8336 87.711C98.7329 87.7879 98.6119 87.8337 98.4855 87.8427ZM98.3349 87.1653C98.4196 87.2123 98.4855 87.2311 98.5231 87.2123C98.5608 87.1935 98.6266 87.09 98.6266 86.8641V77.0594C98.621 76.8294 98.564 76.6035 98.4598 76.3984C98.3556 76.1933 98.2068 76.0141 98.0244 75.8738L89.3018 70.8021C89.2171 70.8021 89.1512 70.7362 89.1136 70.8021C89.076 70.8679 89.0007 70.915 89.0007 71.1408V80.9456C89.0081 81.1762 89.0668 81.4023 89.1726 81.6074C89.2784 81.8125 89.4286 81.9914 89.6123 82.1311L98.3349 87.1653Z" fill="#34C759"/>
    <path d="M94.7482 81.9339C94.3753 81.919 94.0125 81.8089 93.6943 81.6139C93.0603 81.2006 92.5312 80.6453 92.149 79.992C91.7669 79.3387 91.5421 78.6053 91.4925 77.8501C91.4373 77.5469 91.4769 77.2341 91.6062 76.9543C91.7354 76.6746 91.9479 76.4416 92.2146 76.2872C92.4812 76.1327 92.7891 76.0644 93.0961 76.0915C93.403 76.1186 93.6941 76.2399 93.9296 76.4387C94.5636 76.852 95.0927 77.4073 95.4749 78.0606C95.857 78.7139 96.0818 79.4472 96.1314 80.2025C96.1613 80.5038 96.1099 80.8077 95.9824 81.0824C95.855 81.3572 95.6562 81.5927 95.4069 81.7645C95.2059 81.8776 94.9788 81.936 94.7482 81.9339ZM92.8663 76.5422C92.7173 76.5391 92.5705 76.5783 92.4429 76.6551C92.2648 76.7845 92.1247 76.9592 92.037 77.1611C91.9493 77.363 91.9172 77.5846 91.9442 77.8031C91.9826 78.4851 92.1806 79.1486 92.5222 79.7402C92.8637 80.3318 93.3393 80.835 93.9107 81.2093C94.0872 81.3396 94.2949 81.4213 94.5129 81.4461C94.7309 81.4709 94.9516 81.4379 95.1528 81.3505C95.3309 81.2211 95.471 81.0464 95.5587 80.8445C95.6464 80.6426 95.6784 80.4209 95.6515 80.2025C95.6135 79.5193 95.4147 78.8547 95.0713 78.2628C94.728 77.6709 94.2497 77.1684 93.6755 76.7962C93.4381 76.6454 93.166 76.5579 92.8851 76.5422H92.8663Z" fill="#34C759"/>
    <path d="M94.7577 80.7296L93.5815 79.0829V77.6056H94.052V78.9323L95.1435 80.4661L94.7577 80.7296Z" fill="#34C759"/>
    <defs>
        <clipPath id="clip0_212_4676">
            <rect width="5.22823" height="5.22823" fill="white" transform="translate(127.357 47.8917)"/>
        </clipPath>
    </defs>
</svg>
