<svg width="91" height="22" viewBox="0 0 91 22" fill="none" xmlns="http://www.w3.org/2000/svg">
    <path fill-rule="evenodd" clip-rule="evenodd" d="M61.6929 2.63281C61.6951 2.86272 61.6502 3.09065 61.561 3.30255C61.4718 3.51446 61.3401 3.70588 61.1742 3.86502C61.0169 4.0293 60.8279 4.16003 60.6187 4.24934C60.4096 4.33865 60.1844 4.3847 59.957 4.3847C59.7295 4.3847 59.5044 4.33865 59.2952 4.24934C59.086 4.16003 58.8971 4.0293 58.7398 3.86502C58.5762 3.70556 58.4462 3.51496 58.3574 3.30446C58.2686 3.09396 58.2229 2.86782 58.2229 2.63937C58.2229 2.41092 58.2686 2.18478 58.3574 1.97428C58.4462 1.76378 58.5762 1.57318 58.7398 1.41371C58.8971 1.24944 59.086 1.11871 59.2952 1.0294C59.5044 0.940085 59.7295 0.894043 59.957 0.894043C60.1844 0.894043 60.4096 0.940085 60.6187 1.0294C60.8279 1.11871 61.0169 1.24944 61.1742 1.41371C61.3385 1.57134 61.4692 1.76063 61.5584 1.97016C61.6475 2.17969 61.6933 2.40511 61.6929 2.63281ZM61.5506 21.0766H58.3971V8.08974H61.5506V21.0766ZM7.52258 4.50899C9.3036 4.50899 11.0117 5.2165 12.271 6.47587C13.5304 7.73524 14.2379 9.44332 14.2379 11.2243C14.2379 13.0054 13.5304 14.7134 12.271 15.9728C11.0117 17.2322 9.3036 17.9397 7.52258 17.9397H3.5488V4.50899H7.52258ZM7.52258 1.37229H0.445801V21.0764H7.52258C12.9046 21.0764 17.2604 16.6644 17.2604 11.2243C17.2604 5.7824 12.899 1.37229 7.52258 1.37229ZM32.2922 20.6476H29.0975V19.4641C28.1561 20.539 26.7554 21.0765 24.8952 21.0765C23.035 21.0765 21.5506 20.3749 20.442 18.9716C19.3338 17.57 18.746 15.8274 18.7791 14.0409C18.7791 12.1545 19.3447 10.549 20.4757 9.22443C21.0029 8.58417 21.6689 8.07234 22.4233 7.72776C23.1777 7.38318 24.0006 7.21489 24.8297 7.23567C26.7136 7.23567 28.1368 7.7831 29.0993 8.87799V7.66263H32.2922V20.6476ZM29.56 14.1327C29.5769 13.6086 29.4858 13.0867 29.2926 12.5993C29.0993 12.1119 28.8079 11.6694 28.4364 11.2993C27.6873 10.5603 26.7304 10.1901 25.5656 10.1888C24.4008 10.1876 23.4558 10.5478 22.7304 11.2694C21.9963 11.9885 21.6293 12.9429 21.6293 14.1327C21.6293 15.3224 22.0038 16.2825 22.7529 17.0128C23.502 17.7431 24.4645 18.1083 25.6405 18.1083C26.8166 18.1083 27.7672 17.7531 28.4926 17.0428C29.2054 16.3349 29.5613 15.3649 29.56 14.1327ZM50.9327 21.0764H54.0862V10.9491H56.5899V8.35918H54.0862V3.67754H50.9327V8.35918H48.4982V10.9491H50.9327V21.0764ZM85.6143 7.66262C83.5057 7.66262 82.8053 7.81805 81.6817 9.2731V8.08958H78.5356V21.0765H81.6817V14.4997C81.6817 11.5634 82.0394 10.1439 84.412 10.0952C86.2978 10.0559 86.9158 11.2076 86.9158 14.2038V21.0765H90.0356V13.1532C90.0356 9.4922 88.1236 7.66262 85.6143 7.66262ZM40.6499 10.3725C41.4001 10.3647 42.1358 10.5801 42.7633 10.9913C43.3909 11.4025 43.8821 11.9909 44.1745 12.6818C44.467 13.3728 44.5474 14.135 44.4057 14.8718C44.264 15.6086 43.9065 16.2866 43.3786 16.8198C42.8508 17.3529 42.1763 17.7172 41.441 17.8662C40.7057 18.0152 39.9426 17.9423 39.2488 17.6568C38.555 17.3713 37.9617 16.8859 37.5443 16.2625C37.1269 15.639 36.9042 14.9056 36.9046 14.1553C36.9006 13.1573 37.2927 12.1985 37.9949 11.4893C38.6971 10.7801 39.6519 10.3785 40.6499 10.3725ZM40.6499 7.23583C39.7453 7.24074 38.8506 7.42391 38.0169 7.77489C37.1832 8.12587 36.4269 8.63776 35.7912 9.28129C35.1555 9.92482 34.6529 10.6874 34.3121 11.5253C33.9714 12.3632 33.7992 13.2601 33.8053 14.1647C33.7994 15.0691 33.9718 15.9659 34.3126 16.8038C34.6535 17.6416 35.1561 18.404 35.7917 19.0475C36.4274 19.691 37.1836 20.2029 38.0172 20.5539C38.8508 20.905 39.7454 21.0884 40.6499 21.0935C41.5544 21.0884 42.449 20.905 43.2826 20.5539C44.1162 20.2029 44.8724 19.691 45.508 19.0475C46.1437 18.404 46.6463 17.6416 46.9871 16.8038C47.328 15.9659 47.5004 15.0691 47.4944 14.1647C47.5006 13.2601 47.3284 12.3632 46.9877 11.5253C46.6469 10.6874 46.1443 9.92482 45.5086 9.28129C44.8729 8.63776 44.1166 8.12587 43.2829 7.77489C42.4492 7.42391 41.5544 7.24074 40.6499 7.23583ZM72.282 10.9913C71.6544 10.5801 70.9188 10.3647 70.1686 10.3725C69.1705 10.378 68.2153 10.7795 67.513 11.4888C66.8107 12.1981 66.4188 13.1572 66.4233 14.1553C66.4229 14.9056 66.6456 15.639 67.063 16.2625C67.4804 16.8859 68.0737 17.3713 68.7675 17.6568C69.4613 17.9423 70.2244 18.0152 70.9597 17.8662C71.695 17.7172 72.3695 17.3529 72.8973 16.8198C73.4252 16.2866 73.7827 15.6086 73.9244 14.8718C74.0661 14.135 73.9857 13.3728 73.6932 12.6818C73.4008 11.9909 72.9096 11.4025 72.282 10.9913ZM67.5356 7.77489C68.3693 7.42391 69.264 7.24074 70.1686 7.23583C71.0731 7.24074 71.9679 7.42391 72.8016 7.77489C73.6353 8.12587 74.3916 8.63776 75.0273 9.28129C75.663 9.92482 76.1656 10.6874 76.5064 11.5253C76.8471 12.3632 77.0193 13.2601 77.0132 14.1647C77.0132 15.98 76.292 17.7209 75.0084 19.0045C73.7248 20.2881 71.9839 21.0092 70.1686 21.0092C68.3533 21.0092 66.6124 20.2881 65.3287 19.0045C64.0451 17.7209 63.324 15.98 63.324 14.1647C63.3179 13.2601 63.4901 12.3632 63.8308 11.5253C64.1716 10.6874 64.6742 9.92482 65.3099 9.28129C65.9456 8.63776 66.7019 8.12587 67.5356 7.77489Z" fill="white"/>
</svg>
