<svg width="226" height="30" viewBox="0 0 226 30" fill="none" xmlns="http://www.w3.org/2000/svg">
    <path d="M17.9784 7.56179C19.6965 7.56233 21.3613 8.15853 22.6892 9.24883C24.017 10.3391 24.9258 11.8561 25.2606 13.5413C25.5955 15.2264 25.3357 16.9756 24.5256 18.4907C23.7155 20.0059 22.4051 21.1933 20.8177 21.8506C19.2303 22.508 17.4641 22.5946 15.8199 22.0958C14.1758 21.597 12.7555 20.5437 11.8009 19.1151C10.8463 17.6866 10.4166 15.9713 10.5848 14.2614C10.7531 12.5515 11.509 10.9529 12.7237 9.73782C14.1186 8.34608 16.008 7.56365 17.9784 7.56179ZM17.9784 1.97905e-06C14.0851 -0.00199663 10.3435 1.50984 7.54452 4.216C4.7455 6.92215 3.10831 10.6106 2.97899 14.5017C2.84967 18.3929 4.23833 22.1819 6.8515 25.0679C9.46467 27.9539 13.0976 29.7109 16.9824 29.9674C20.8673 30.2239 24.6996 28.9599 27.6696 26.4425C30.6395 23.9251 32.5143 20.3516 32.8978 16.4772C33.2812 12.6029 32.1432 8.73118 29.7243 5.6805C27.3054 2.62981 23.7951 0.639142 19.9353 0.129215C19.2865 0.0434479 18.6328 0.000284335 17.9784 1.97905e-06Z" fill="url(#paint0_linear_464_3312)"/>
    <path d="M10.4869 0H0V29.9625H10.4869V0Z" fill="#00DE7A"/>
    <path d="M10.4874 2.01123V27.9513C8.21189 26.6358 6.32251 24.7449 5.00895 22.4683C3.6954 20.1917 3.00391 17.6096 3.00391 14.9813C3.00391 12.3529 3.6954 9.77079 5.00895 7.4942C6.32251 5.21761 8.21189 3.32666 10.4874 2.01123Z" fill="#00CC5C"/>
    <path fill-rule="evenodd" clip-rule="evenodd" d="M104.218 6.40371C104.22 6.63362 104.175 6.86154 104.086 7.07345C103.997 7.28536 103.865 7.47677 103.699 7.63592C103.542 7.80019 103.353 7.93093 103.144 8.02024C102.934 8.10955 102.709 8.15559 102.482 8.15559C102.254 8.15559 102.029 8.10955 101.82 8.02024C101.611 7.93093 101.422 7.80019 101.265 7.63592C101.101 7.47645 100.971 7.28586 100.882 7.07536C100.794 6.86486 100.748 6.63872 100.748 6.41026C100.748 6.18181 100.794 5.95567 100.882 5.74517C100.971 5.53467 101.101 5.34407 101.265 5.18461C101.422 5.02033 101.611 4.8896 101.82 4.80029C102.029 4.71098 102.254 4.66494 102.482 4.66494C102.709 4.66494 102.934 4.71098 103.144 4.80029C103.353 4.8896 103.542 5.02033 103.699 5.18461C103.863 5.34223 103.994 5.53152 104.083 5.74105C104.172 5.95058 104.218 6.176 104.218 6.40371ZM104.076 24.8475H100.922V11.8606H104.076V24.8475ZM50.0475 8.27988C51.8285 8.27988 53.5366 8.98739 54.7959 10.2468C56.0553 11.5061 56.7628 13.2142 56.7628 14.9952C56.7628 16.7763 56.0553 18.4843 54.7959 19.7437C53.5366 21.0031 51.8285 21.7106 50.0475 21.7106H46.0737V8.27988H50.0475ZM50.0475 5.14318H42.9707V24.8473H50.0475C55.4295 24.8473 59.7853 20.4353 59.7853 14.9952C59.7853 9.55329 55.4239 5.14318 50.0475 5.14318ZM74.8171 24.4185H71.6224V23.235C70.681 24.3099 69.2803 24.8474 67.4201 24.8474C65.5599 24.8474 64.0756 24.1457 62.9669 22.7425C61.8587 21.3409 61.2709 19.5983 61.304 17.8118C61.304 15.9254 61.8696 14.3199 63.0006 12.9953C63.5278 12.3551 64.1938 11.8432 64.9482 11.4987C65.7026 11.1541 66.5255 10.9858 67.3546 11.0066C69.2385 11.0066 70.6617 11.554 71.6242 12.6489V11.4335H74.8171V24.4185ZM72.0849 17.9036C72.1018 17.3795 72.0107 16.8576 71.8175 16.3702C71.6242 15.8828 71.3328 15.4403 70.9613 15.0702C70.2123 14.3312 69.2553 13.961 68.0905 13.9597C66.9257 13.9585 65.9807 14.3187 65.2553 15.0403C64.5212 15.7594 64.1542 16.7138 64.1542 17.9036C64.1542 19.0933 64.5287 20.0534 65.2778 20.7837C66.0269 21.514 66.9894 21.8792 68.1654 21.8792C69.3415 21.8792 70.2921 21.524 71.0175 20.8137C71.7304 20.1058 72.0862 19.1358 72.0849 17.9036ZM93.4576 24.8473H96.6111V14.72H99.1148V12.1301H96.6111V7.44843H93.4576V12.1301H91.0231V14.72H93.4576V24.8473ZM128.139 11.9215C126.031 11.9215 125.33 12.0769 124.207 13.532V12.3485H121.061V25.3353H124.207V18.7586C124.207 15.8222 124.564 14.4028 126.937 14.3541C128.823 14.3147 129.441 15.4664 129.441 18.4627V25.3353H132.561V17.4121C132.561 13.7511 130.649 11.9215 128.139 11.9215ZM83.1748 14.1434C83.925 14.1356 84.6607 14.351 85.2882 14.7622C85.9158 15.1734 86.407 15.7618 86.6994 16.4527C86.9919 17.1437 87.0723 17.9059 86.9306 18.6427C86.7889 19.3795 86.4314 20.0575 85.9035 20.5907C85.3757 21.1238 84.7012 21.4881 83.9659 21.6371C83.2306 21.7861 82.4675 21.7132 81.7737 21.4277C81.0799 21.1421 80.4866 20.6568 80.0692 20.0334C79.6518 19.4099 79.4291 18.6765 79.4295 17.9262C79.4255 16.9282 79.8176 15.9694 80.5198 15.2602C81.222 14.551 82.1768 14.1494 83.1748 14.1434ZM83.1748 11.0067C82.2702 11.0116 81.3755 11.1948 80.5418 11.5458C79.7081 11.8968 78.9518 12.4087 78.3161 13.0522C77.6804 13.6957 77.1778 14.4583 76.837 15.2962C76.4963 16.1341 76.3241 17.031 76.3302 17.9356C76.3243 18.84 76.4967 19.7368 76.8375 20.5746C77.1784 21.4125 77.681 22.1749 78.3166 22.8184C78.9523 23.4619 79.7085 23.9738 80.5421 24.3248C81.3757 24.6759 82.2703 24.8592 83.1748 24.8644C84.0793 24.8592 84.9739 24.6759 85.8075 24.3248C86.6411 23.9738 87.3973 23.4619 88.0329 22.8184C88.6686 22.1749 89.1712 21.4125 89.512 20.5746C89.8529 19.7368 90.0253 18.84 90.0194 17.9356C90.0255 17.031 89.8533 16.1341 89.5126 15.2962C89.1718 14.4583 88.6692 13.6957 88.0335 13.0522C87.3978 12.4087 86.6415 11.8968 85.8078 11.5458C84.9741 11.1948 84.0793 11.0116 83.1748 11.0067ZM114.807 14.7622C114.179 14.351 113.444 14.1356 112.693 14.1434C111.695 14.1489 110.74 14.5504 110.038 15.2597C109.336 15.969 108.944 16.9281 108.948 17.9262C108.948 18.6765 109.171 19.4099 109.588 20.0334C110.005 20.6568 110.599 21.1421 111.292 21.4277C111.986 21.7132 112.749 21.7861 113.485 21.6371C114.22 21.4881 114.894 21.1238 115.422 20.5907C115.95 20.0575 116.308 19.3795 116.449 18.6427C116.591 17.9059 116.511 17.1437 116.218 16.4527C115.926 15.7618 115.435 15.1734 114.807 14.7622ZM110.061 11.5458C110.894 11.1948 111.789 11.0116 112.693 11.0067C113.598 11.0116 114.493 11.1948 115.326 11.5458C116.16 11.8968 116.916 12.4087 117.552 13.0522C118.188 13.6957 118.691 14.4583 119.031 15.2962C119.372 16.1341 119.544 17.031 119.538 17.9356C119.538 19.7509 118.817 21.4918 117.533 22.7754C116.25 24.059 114.509 24.7801 112.693 24.7801C110.878 24.7801 109.137 24.059 107.854 22.7754C106.57 21.4918 105.849 19.7509 105.849 17.9356C105.843 17.031 106.015 16.1341 106.356 15.2962C106.696 14.4583 107.199 13.6957 107.835 13.0522C108.47 12.4087 109.227 11.8968 110.061 11.5458Z" fill="white"/>
    <path d="M151.833 5V26.5284H150.843V5H151.833Z" fill="white"/>
    <path d="M170.561 22.5455V8H176.015C177.133 8 178.07 8.20833 178.828 8.625C179.59 9.04167 180.165 9.61458 180.553 10.3438C180.946 11.0682 181.143 11.892 181.143 12.8153C181.143 13.7481 180.946 14.5767 180.553 15.3011C180.16 16.0256 179.58 16.5961 178.813 17.0128C178.046 17.4247 177.102 17.6307 175.98 17.6307H172.365V15.4645H175.624C176.278 15.4645 176.813 15.3509 177.23 15.1236C177.646 14.8963 177.954 14.5838 178.153 14.1861C178.356 13.7884 178.458 13.3314 178.458 12.8153C178.458 12.2992 178.356 11.8447 178.153 11.4517C177.954 11.0587 177.644 10.7533 177.222 10.5355C176.806 10.313 176.268 10.2017 175.61 10.2017H173.195V22.5455H170.561Z" fill="white"/>
    <path d="M186.262 22.7656C185.571 22.7656 184.948 22.6425 184.394 22.3963C183.845 22.1454 183.409 21.776 183.087 21.2884C182.77 20.8007 182.611 20.1993 182.611 19.4844C182.611 18.8688 182.725 18.3598 182.952 17.9574C183.18 17.5549 183.49 17.233 183.883 16.9915C184.276 16.75 184.718 16.5677 185.211 16.4446C185.708 16.3168 186.222 16.2244 186.752 16.1676C187.391 16.1013 187.91 16.0421 188.307 15.9901C188.705 15.9332 188.994 15.848 189.174 15.7344C189.358 15.616 189.451 15.4337 189.451 15.1875V15.1449C189.451 14.6098 189.292 14.1955 188.975 13.902C188.658 13.6084 188.201 13.4616 187.604 13.4616C186.974 13.4616 186.475 13.599 186.106 13.8736C185.741 14.1482 185.495 14.4725 185.367 14.8466L182.966 14.5057C183.156 13.8428 183.468 13.2888 183.904 12.8438C184.34 12.3939 184.872 12.0578 185.502 11.8352C186.132 11.608 186.828 11.4943 187.59 11.4943C188.116 11.4943 188.639 11.5559 189.16 11.679C189.68 11.8021 190.156 12.0057 190.587 12.2898C191.018 12.5691 191.364 12.9503 191.624 13.4332C191.889 13.9162 192.022 14.5199 192.022 15.2443V22.5455H189.55V21.0469H189.465C189.309 21.3499 189.089 21.634 188.805 21.8991C188.525 22.1596 188.172 22.3703 187.746 22.5313C187.325 22.6875 186.83 22.7656 186.262 22.7656ZM186.93 20.8764C187.446 20.8764 187.893 20.7746 188.272 20.571C188.651 20.3627 188.942 20.0881 189.145 19.7472C189.354 19.4062 189.458 19.0346 189.458 18.6321V17.3466C189.377 17.4129 189.24 17.4744 189.046 17.5312C188.857 17.5881 188.644 17.6378 188.407 17.6804C188.17 17.723 187.936 17.7609 187.704 17.794C187.472 17.8272 187.27 17.8556 187.1 17.8793C186.716 17.9313 186.373 18.0166 186.07 18.1349C185.767 18.2533 185.528 18.419 185.353 18.6321C185.178 18.8404 185.09 19.1103 185.09 19.4418C185.09 19.9152 185.263 20.2727 185.608 20.5142C185.954 20.7557 186.394 20.8764 186.93 20.8764Z" fill="white"/>
    <path d="M194.607 26.6364V11.6364H197.135V13.4403H197.285C197.417 13.1752 197.604 12.8935 197.846 12.5952C198.087 12.2921 198.414 12.0341 198.826 11.821C199.238 11.6032 199.763 11.4943 200.403 11.4943C201.245 11.4943 202.005 11.7098 202.682 12.1406C203.364 12.5668 203.904 13.1989 204.302 14.0369C204.704 14.8703 204.905 15.893 204.905 17.1051C204.905 18.303 204.709 19.321 204.316 20.1591C203.923 20.9972 203.388 21.6364 202.711 22.0767C202.034 22.517 201.267 22.7372 200.41 22.7372C199.785 22.7372 199.266 22.633 198.854 22.4247C198.442 22.2164 198.111 21.9654 197.86 21.6719C197.614 21.3736 197.422 21.0919 197.285 20.8267H197.178V26.6364H194.607ZM197.128 17.0909C197.128 17.7964 197.228 18.4143 197.427 18.9446C197.63 19.4749 197.921 19.8892 198.3 20.1875C198.684 20.4811 199.148 20.6278 199.692 20.6278C200.26 20.6278 200.736 20.4763 201.12 20.1733C201.503 19.8655 201.792 19.4465 201.986 18.9162C202.185 18.3812 202.285 17.7727 202.285 17.0909C202.285 16.4138 202.188 15.8125 201.993 15.2869C201.799 14.7614 201.51 14.3494 201.127 14.0511C200.743 13.7528 200.265 13.6037 199.692 13.6037C199.143 13.6037 198.677 13.7481 198.293 14.0369C197.91 14.3258 197.618 14.7306 197.42 15.2514C197.225 15.7723 197.128 16.3854 197.128 17.0909Z" fill="white"/>
    <path d="M211.937 22.7585C210.843 22.7585 209.898 22.5312 209.103 22.0767C208.312 21.6174 207.704 20.9688 207.278 20.1307C206.851 19.2879 206.638 18.2959 206.638 17.1548C206.638 16.0327 206.851 15.0478 207.278 14.2003C207.708 13.348 208.31 12.6851 209.082 12.2116C209.853 11.7334 210.76 11.4943 211.802 11.4943C212.474 11.4943 213.108 11.6032 213.705 11.821C214.306 12.0341 214.837 12.3655 215.296 12.8153C215.76 13.2652 216.125 13.8381 216.39 14.5341C216.655 15.2254 216.787 16.0492 216.787 17.0057V17.794H207.846V16.0611H214.323C214.318 15.5687 214.212 15.1307 214.003 14.7472C213.795 14.3589 213.504 14.0535 213.13 13.831C212.76 13.6084 212.33 13.4972 211.837 13.4972C211.312 13.4972 210.85 13.625 210.452 13.8807C210.055 14.1316 209.744 14.4631 209.522 14.875C209.304 15.2822 209.193 15.7296 209.188 16.2173V17.7301C209.188 18.3646 209.304 18.9091 209.536 19.3636C209.768 19.8134 210.092 20.1591 210.509 20.4006C210.926 20.6373 211.413 20.7557 211.972 20.7557C212.346 20.7557 212.685 20.7036 212.988 20.5994C213.291 20.4905 213.554 20.3319 213.776 20.1236C213.999 19.9152 214.167 19.6572 214.28 19.3494L216.681 19.6193C216.529 20.2538 216.241 20.8078 215.814 21.2813C215.393 21.75 214.853 22.1146 214.195 22.375C213.537 22.6307 212.784 22.7585 211.937 22.7585Z" fill="white"/>
    <path d="M218.963 22.5455V11.6364H221.455V13.4545H221.569C221.768 12.8248 222.109 12.3395 222.592 11.9986C223.079 11.6529 223.636 11.4801 224.261 11.4801C224.403 11.4801 224.561 11.4872 224.737 11.5014C224.917 11.5109 225.066 11.5275 225.184 11.5511V13.9162C225.075 13.8783 224.902 13.8452 224.666 13.8168C224.434 13.7836 224.209 13.767 223.991 13.767C223.522 13.767 223.101 13.8688 222.727 14.0724C222.357 14.2713 222.066 14.5483 221.853 14.9034C221.64 15.2585 221.534 15.6681 221.534 16.1321V22.5455H218.963Z" fill="white"/>
    <defs>
        <linearGradient id="paint0_linear_464_3312" x1="2.99714" y1="14.9813" x2="32.9597" y2="14.9813" gradientUnits="userSpaceOnUse">
            <stop stop-color="#00DE7A"/>
            <stop offset="1" stop-color="#A8FF35"/>
        </linearGradient>
    </defs>
</svg>
