<svg width="33" height="30" viewBox="0 0 33 30" fill="none" xmlns="http://www.w3.org/2000/svg">
    <path d="M17.9774 7.56179C19.6955 7.56233 21.3603 8.15853 22.6882 9.24883C24.016 10.3391 24.9248 11.8561 25.2597 13.5413C25.5945 15.2264 25.3348 16.9756 24.5246 18.4907C23.7145 20.0059 22.4041 21.1933 20.8167 21.8506C19.2293 22.508 17.4631 22.5946 15.819 22.0958C14.1748 21.597 12.7545 20.5437 11.7999 19.1151C10.8454 17.6866 10.4156 15.9713 10.5839 14.2614C10.7521 12.5515 11.508 10.9529 12.7227 9.73782C14.1176 8.34608 16.007 7.56365 17.9774 7.56179ZM17.9774 1.97905e-06C14.0841 -0.00199663 10.3426 1.50984 7.54354 4.216C4.74452 6.92215 3.10734 10.6106 2.97801 14.5017C2.84869 18.3929 4.23736 22.1819 6.85052 25.0679C9.46369 27.9539 13.0966 29.7109 16.9814 29.9674C20.8663 30.2239 24.6987 28.9599 27.6686 26.4425C30.6386 23.9251 32.5134 20.3516 32.8968 16.4772C33.2802 12.6029 32.1422 8.73118 29.7233 5.6805C27.3044 2.62981 23.7941 0.639142 19.9343 0.129215C19.2856 0.0434479 18.6319 0.000284335 17.9774 1.97905e-06V1.97905e-06Z" fill="url(#paint0_linear_2604_8263)"/>
    <path d="M10.4869 0H0V29.9625H10.4869V0Z" fill="#00DE7A"/>
    <path d="M10.4869 2.01123V27.9513C8.2114 26.6358 6.32202 24.7449 5.00846 22.4683C3.69491 20.1917 3.00342 17.6096 3.00342 14.9813C3.00342 12.3529 3.69491 9.77079 5.00846 7.4942C6.32202 5.21761 8.2114 3.32666 10.4869 2.01123Z" fill="#00CC5C"/>
    <defs>
        <linearGradient id="paint0_linear_2604_8263" x1="2.99616" y1="14.9813" x2="32.9587" y2="14.9813" gradientUnits="userSpaceOnUse">
            <stop stop-color="#00DE7A"/>
            <stop offset="1" stop-color="#A8FF35"/>
        </linearGradient>
    </defs>
</svg>
