<svg width="168" height="24" viewBox="0 0 168 24" fill="none" xmlns="http://www.w3.org/2000/svg">
    <path fill-rule="evenodd" clip-rule="evenodd" d="M84.2543 5.30636C84.256 5.49029 84.2201 5.67263 84.1487 5.84215C84.0774 6.01168 83.972 6.16481 83.8393 6.29213C83.7134 6.42355 83.5623 6.52814 83.3949 6.59958C83.2276 6.67103 83.0475 6.70787 82.8655 6.70787C82.6835 6.70787 82.5035 6.67103 82.3361 6.59958C82.1688 6.52814 82.0176 6.42355 81.8917 6.29213C81.7609 6.16456 81.6569 6.01208 81.5858 5.84368C81.5148 5.67528 81.4782 5.49437 81.4782 5.31161C81.4782 5.12884 81.5148 4.94793 81.5858 4.77953C81.6569 4.61113 81.7609 4.45865 81.8917 4.33108C82.0176 4.19966 82.1688 4.09508 82.3361 4.02363C82.5035 3.95218 82.6835 3.91534 82.8655 3.91534C83.0475 3.91534 83.2276 3.95218 83.3949 4.02363C83.5623 4.09508 83.7134 4.19966 83.8393 4.33108C83.9708 4.45718 84.0753 4.60861 84.1466 4.77624C84.218 4.94386 84.2546 5.1242 84.2543 5.30636ZM84.1404 20.0614H81.6176V9.6719H84.1404V20.0614ZM40.9176 6.80724C42.3424 6.80724 43.7088 7.37325 44.7163 8.38074C45.7238 9.38824 46.2898 10.7547 46.2898 12.1795C46.2898 13.6043 45.7238 14.9708 44.7163 15.9783C43.7088 16.9858 42.3424 17.5518 40.9176 17.5518H37.7385V6.80724H40.9176ZM40.9176 4.29788H35.2561V20.0612H40.9176C45.2232 20.0612 48.7078 16.5316 48.7078 12.1795C48.7078 7.82597 45.2187 4.29788 40.9176 4.29788ZM60.7333 19.718H58.1775V18.7712C57.4244 19.6311 56.3038 20.0611 54.8157 20.0611C53.3275 20.0611 52.14 19.4998 51.2531 18.3772C50.3665 17.2559 49.8963 15.8618 49.9228 14.4326C49.9228 12.9235 50.3752 11.6391 51.2801 10.5794C51.7018 10.0672 52.2346 9.65776 52.8381 9.3821C53.4416 9.10643 54.1 8.97181 54.7632 8.98842C56.2704 8.98842 57.4089 9.42637 58.179 10.3023V9.33H60.7333V19.718ZM58.5475 14.506C58.561 14.0868 58.4882 13.6692 58.3335 13.2793C58.1789 12.8894 57.9458 12.5354 57.6486 12.2394C57.0494 11.6481 56.2838 11.352 55.352 11.351C54.4202 11.35 53.6641 11.6381 53.0838 12.2154C52.4966 12.7907 52.2029 13.5542 52.2029 14.506C52.2029 15.4578 52.5026 16.2259 53.1018 16.8101C53.7011 17.3944 54.4711 17.6865 55.4119 17.6865C56.3528 17.6865 57.1133 17.4024 57.6936 16.8341C58.2639 16.2678 58.5485 15.4918 58.5475 14.506ZM75.6458 20.0614H78.1686V11.9595H80.1716V9.88764H78.1686V6.14233H75.6458V9.88764H73.6982V11.9595H75.6458V20.0614ZM103.391 9.33024C101.704 9.33024 101.144 9.45459 100.245 10.6186V9.67182H97.728V20.0613H100.245V14.7999C100.245 12.4508 100.531 11.3153 102.429 11.2763C103.938 11.2448 104.432 12.1662 104.432 14.5632V20.0613H106.928V13.7227C106.928 10.7939 105.398 9.33024 103.391 9.33024ZM67.4197 11.4981C68.0199 11.4919 68.6084 11.6641 69.1104 11.9931C69.6125 12.322 70.0055 12.7928 70.2394 13.3455C70.4734 13.8983 70.5377 14.5081 70.4244 15.0975C70.311 15.6869 70.025 16.2293 69.6027 16.6559C69.1804 17.0824 68.6408 17.3738 68.0526 17.493C67.4643 17.6122 66.8539 17.5539 66.2988 17.3255C65.7438 17.0971 65.2692 16.7088 64.9352 16.21C64.6013 15.7113 64.4232 15.1245 64.4234 14.5243C64.4202 13.7259 64.7339 12.9589 65.2957 12.3915C65.8574 11.8242 66.6213 11.5028 67.4197 11.4981ZM67.4197 8.98873C66.696 8.99265 65.9803 9.13919 65.3133 9.41997C64.6464 9.70076 64.0413 10.1103 63.5327 10.6251C63.0242 11.1399 62.6221 11.7499 62.3495 12.4203C62.0769 13.0906 61.9391 13.8082 61.944 14.5318C61.9393 15.2554 62.0772 15.9728 62.3499 16.6431C62.6226 17.3133 63.0246 17.9233 63.5332 18.4381C64.0417 18.9528 64.6467 19.3624 65.3135 19.6432C65.9804 19.9241 66.6961 20.0707 67.4197 20.0749C68.1433 20.0707 68.859 19.9241 69.5258 19.6432C70.1927 19.3624 70.7977 18.9528 71.3062 18.4381C71.8147 17.9233 72.2168 17.3133 72.4895 16.6431C72.7622 15.9728 72.9001 15.2554 72.8953 14.5318C72.9003 13.8082 72.7625 13.0906 72.4899 12.4203C72.2173 11.7499 71.8152 11.1399 71.3067 10.6251C70.7981 10.1103 70.193 9.70076 69.5261 9.41997C68.8591 9.13919 68.1433 8.99265 67.4197 8.98873ZM92.725 11.9931C92.2229 11.6641 91.6344 11.4919 91.0342 11.4981C90.2357 11.5024 89.4716 11.8236 88.9098 12.3911C88.3479 12.9585 88.0344 13.7258 88.038 14.5243C88.0377 15.1245 88.2159 15.7113 88.5498 16.21C88.8837 16.7088 89.3583 17.0971 89.9134 17.3255C90.4684 17.5539 91.0788 17.6122 91.6671 17.493C92.2554 17.3738 92.7949 17.0824 93.2172 16.6559C93.6395 16.2293 93.9255 15.6869 94.0389 15.0975C94.1523 14.5081 94.0879 13.8983 93.8539 13.3455C93.62 12.7928 93.227 12.322 92.725 11.9931ZM88.9278 9.41997C89.5948 9.13919 90.3106 8.99265 91.0342 8.98873C91.7579 8.99265 92.4736 9.13919 93.1406 9.41997C93.8076 9.70076 94.4126 10.1103 94.9212 10.6251C95.4297 11.1399 95.8318 11.7499 96.1044 12.4203C96.377 13.0906 96.5148 13.8082 96.5099 14.5318C96.5099 15.984 95.933 17.3768 94.9061 18.4037C93.8792 19.4305 92.4865 20.0074 91.0342 20.0074C89.582 20.0074 88.1892 19.4305 87.1623 18.4037C86.1355 17.3768 85.5586 15.984 85.5586 14.5318C85.5536 13.8082 85.6914 13.0906 85.964 12.4203C86.2366 11.7499 86.6387 11.1399 87.1473 10.6251C87.6558 10.1103 88.2609 9.70076 88.9278 9.41997Z" fill="white"/>
    <path d="M14.8819 6.04944C16.2564 6.04986 17.5883 6.52682 18.6506 7.39907C19.7128 8.27131 20.4399 9.48487 20.7077 10.833C20.9756 12.1812 20.7678 13.5805 20.1197 14.7926C19.4716 16.0047 18.4233 16.9546 17.1534 17.4805C15.8835 18.0064 14.4705 18.0757 13.1552 17.6767C11.8399 17.2776 10.7036 16.4349 9.93996 15.2921C9.1763 14.1493 8.83249 12.777 8.9671 11.4091C9.10172 10.0412 9.70642 8.76231 10.6782 7.79026C11.7941 6.67686 13.3056 6.05092 14.8819 6.04944ZM14.8819 1.58324e-06C11.7673 -0.0015973 8.77407 1.20788 6.53485 3.3728C4.29563 5.53772 2.98588 8.48846 2.88242 11.6014C2.77896 14.7143 3.8899 17.7455 5.98043 20.0543C8.07096 22.3632 10.9773 23.7687 14.0852 23.9739C17.193 24.1791 20.2589 23.1679 22.6349 21.154C25.0109 19.1401 26.5107 16.2813 26.8174 13.1818C27.1242 10.0823 26.2138 6.98495 24.2787 4.5444C22.3435 2.10385 19.5353 0.511313 16.4475 0.103372C15.9285 0.0347583 15.4055 0.000227468 14.8819 1.58324e-06Z" fill="url(#paint0_linear_861_2567)"/>
    <path d="M8.88951 0H0.5V23.97H8.88951V0Z" fill="#00DE7A"/>
    <path d="M8.88953 1.60901V22.361C7.06913 21.3087 5.55762 19.7959 4.50678 17.9747C3.45593 16.1534 2.90274 14.0877 2.90274 11.985C2.90274 9.88234 3.45593 7.81666 4.50678 5.99538C5.55762 4.17411 7.06913 2.66136 8.88953 1.60901Z" fill="#00CC5C"/>
    <path d="M118.76 3.53693V20.2812H117.09V3.53693H118.76Z" fill="white"/>
    <path d="M128.928 17.1818V7H132.746C133.528 7 134.185 7.14583 134.715 7.4375C135.249 7.72917 135.651 8.13021 135.923 8.64062C136.198 9.14773 136.336 9.72443 136.336 10.3707C136.336 11.0237 136.198 11.6037 135.923 12.1108C135.648 12.6179 135.242 13.0173 134.705 13.3089C134.168 13.5973 133.507 13.7415 132.721 13.7415H130.191V12.2251H132.473C132.93 12.2251 133.305 12.1456 133.596 11.9865C133.888 11.8274 134.104 11.6087 134.243 11.3303C134.385 11.0518 134.457 10.732 134.457 10.3707C134.457 10.0095 134.385 9.69129 134.243 9.41619C134.104 9.1411 133.886 8.92732 133.591 8.77486C133.3 8.61908 132.924 8.54119 132.463 8.54119H130.773V17.1818H128.928Z" fill="white"/>
    <path d="M139.919 17.3359C139.435 17.3359 138.999 17.2498 138.612 17.0774C138.227 16.9018 137.922 16.6432 137.697 16.3018C137.475 15.9605 137.364 15.5395 137.364 15.0391C137.364 14.6082 137.443 14.2519 137.602 13.9702C137.761 13.6884 137.978 13.4631 138.254 13.294C138.529 13.125 138.839 12.9974 139.183 12.9112C139.531 12.8217 139.891 12.7571 140.262 12.7173C140.71 12.6709 141.072 12.6295 141.351 12.593C141.629 12.5533 141.831 12.4936 141.957 12.4141C142.087 12.3312 142.151 12.2036 142.151 12.0312V12.0014C142.151 11.6269 142.04 11.3369 141.818 11.1314C141.596 10.9259 141.276 10.8232 140.859 10.8232C140.418 10.8232 140.068 10.9193 139.81 11.1115C139.554 11.3037 139.382 11.5308 139.293 11.7926L137.612 11.554C137.745 11.09 137.964 10.7022 138.268 10.3906C138.573 10.0758 138.946 9.84044 139.387 9.68466C139.828 9.52557 140.315 9.44602 140.849 9.44602C141.217 9.44602 141.583 9.48911 141.947 9.57528C142.312 9.66146 142.645 9.80398 142.947 10.0028C143.248 10.1984 143.49 10.4652 143.673 10.8033C143.858 11.1413 143.951 11.5639 143.951 12.071V17.1818H142.221V16.1328H142.161C142.052 16.3449 141.898 16.5438 141.699 16.7294C141.503 16.9117 141.256 17.0592 140.958 17.1719C140.663 17.2812 140.317 17.3359 139.919 17.3359ZM140.386 16.0135C140.748 16.0135 141.061 15.9422 141.326 15.7997C141.591 15.6539 141.795 15.4616 141.938 15.223C142.083 14.9844 142.156 14.7242 142.156 14.4425V13.5426C142.1 13.589 142.004 13.6321 141.868 13.6719C141.735 13.7116 141.586 13.7464 141.42 13.7763C141.255 13.8061 141.091 13.8326 140.928 13.8558C140.766 13.879 140.625 13.8989 140.506 13.9155C140.237 13.9519 139.997 14.0116 139.785 14.0945C139.573 14.1773 139.405 14.2933 139.283 14.4425C139.16 14.5883 139.099 14.7772 139.099 15.0092C139.099 15.3407 139.22 15.5909 139.462 15.7599C139.704 15.929 140.012 16.0135 140.386 16.0135Z" fill="white"/>
    <path d="M145.761 20.0455V9.54545H147.531V10.8082H147.635C147.728 10.6226 147.859 10.4254 148.028 10.2166C148.197 10.0045 148.425 9.82386 148.714 9.67472C149.002 9.52225 149.37 9.44602 149.817 9.44602C150.407 9.44602 150.939 9.59683 151.413 9.89844C151.891 10.1967 152.268 10.6392 152.547 11.2259C152.829 11.8092 152.969 12.5251 152.969 13.3736C152.969 14.2121 152.832 14.9247 152.557 15.5114C152.282 16.098 151.907 16.5455 151.433 16.8537C150.959 17.1619 150.422 17.3161 149.822 17.3161C149.385 17.3161 149.022 17.2431 148.734 17.0973C148.445 16.9515 148.213 16.7758 148.038 16.5703C147.865 16.3615 147.731 16.1643 147.635 15.9787H147.56V20.0455H145.761ZM147.526 13.3636C147.526 13.8575 147.595 14.29 147.734 14.6612C147.877 15.0324 148.081 15.3224 148.346 15.5312C148.614 15.7367 148.939 15.8395 149.32 15.8395C149.718 15.8395 150.051 15.7334 150.32 15.5213C150.588 15.3059 150.79 15.0125 150.926 14.6413C151.065 14.2668 151.135 13.8409 151.135 13.3636C151.135 12.8897 151.067 12.4688 150.931 12.1009C150.795 11.733 150.593 11.4446 150.325 11.2358C150.056 11.027 149.721 10.9226 149.32 10.9226C148.936 10.9226 148.609 11.0237 148.341 11.2259C148.072 11.428 147.869 11.7114 147.729 12.076C147.594 12.4406 147.526 12.8698 147.526 13.3636Z" fill="white"/>
    <path d="M157.891 17.331C157.126 17.331 156.465 17.1719 155.908 16.8537C155.354 16.5322 154.928 16.0781 154.63 15.4915C154.332 14.9015 154.183 14.2071 154.183 13.4084C154.183 12.6229 154.332 11.9335 154.63 11.3402C154.932 10.7436 155.353 10.2796 155.893 9.94815C156.433 9.6134 157.068 9.44602 157.797 9.44602C158.268 9.44602 158.712 9.52225 159.129 9.67472C159.55 9.82386 159.921 10.0559 160.243 10.3707C160.568 10.6856 160.823 11.0866 161.009 11.5739C161.194 12.0578 161.287 12.6345 161.287 13.304V13.8558H155.028V12.6428H159.562C159.558 12.2981 159.484 11.9915 159.338 11.723C159.192 11.4512 158.988 11.2375 158.727 11.0817C158.468 10.9259 158.166 10.848 157.822 10.848C157.454 10.848 157.131 10.9375 156.852 11.1165C156.574 11.2921 156.357 11.5241 156.201 11.8125C156.049 12.0975 155.971 12.4107 155.967 12.7521V13.8111C155.967 14.2552 156.049 14.6364 156.211 14.9545C156.373 15.2694 156.6 15.5114 156.892 15.6804C157.184 15.8461 157.525 15.929 157.916 15.929C158.178 15.929 158.415 15.8925 158.627 15.8196C158.839 15.7434 159.023 15.6323 159.179 15.4865C159.335 15.3407 159.452 15.16 159.532 14.9446L161.212 15.1335C161.106 15.5777 160.904 15.9654 160.606 16.2969C160.311 16.625 159.933 16.8802 159.472 17.0625C159.012 17.2415 158.485 17.331 157.891 17.331Z" fill="white"/>
    <path d="M162.809 17.1818V9.54545H164.555V10.8182H164.634C164.773 10.3774 165.012 10.0376 165.35 9.79901C165.691 9.55705 166.081 9.43608 166.518 9.43608C166.618 9.43608 166.729 9.44105 166.851 9.45099C166.977 9.45762 167.082 9.46922 167.165 9.4858V11.1413C167.088 11.1148 166.967 11.0916 166.802 11.0717C166.639 11.0485 166.482 11.0369 166.329 11.0369C166.001 11.0369 165.706 11.1082 165.444 11.2507C165.186 11.3899 164.982 11.5838 164.833 11.8324C164.684 12.081 164.609 12.3677 164.609 12.6925V17.1818H162.809Z" fill="white"/>
    <defs>
        <linearGradient id="paint0_linear_861_2567" x1="2.89694" y1="11.985" x2="26.867" y2="11.985" gradientUnits="userSpaceOnUse">
            <stop stop-color="#00DE7A"/>
            <stop offset="1" stop-color="#A8FF35"/>
        </linearGradient>
    </defs>
</svg>
