<svg width="30" height="30" viewBox="0 0 30 30" fill="none" xmlns="http://www.w3.org/2000/svg">
    <path fill-rule="evenodd" clip-rule="evenodd" d="M6.5 8.625C6.5 8.00368 7.00368 7.5 7.625 7.5H23.375C23.9963 7.5 24.5 8.00368 24.5 8.625C24.5 9.24632 23.9963 9.75 23.375 9.75H7.625C7.00368 9.75 6.5 9.24632 6.5 8.625ZM6.5 14.625C6.5 14.0037 7.00368 13.5 7.625 13.5H23.375C23.9963 13.5 24.5 14.0037 24.5 14.625C24.5 15.2463 23.9963 15.75 23.375 15.75H7.625C7.00368 15.75 6.5 15.2463 6.5 14.625ZM7.625 19.5C7.00368 19.5 6.5 20.0037 6.5 20.625C6.5 21.2463 7.00368 21.75 7.625 21.75H23.375C23.9963 21.75 24.5 21.2463 24.5 20.625C24.5 20.0037 23.9963 19.5 23.375 19.5H7.625Z" fill="white"/>
</svg>
