<svg width="399" height="857" viewBox="0 0 399 857" fill="none" xmlns="http://www.w3.org/2000/svg">
    <path d="M823.933 -4.11411C811.23 -2.84177 798.605 -0.891206 786.024 1.27489C773.446 3.46058 760.926 5.97157 748.463 8.76668C736 11.5618 723.598 14.5998 711.261 17.9102C708.172 18.726 705.106 19.6084 702.023 20.4536C698.94 21.2989 695.871 22.1617 692.813 23.0833L683.629 25.7893L674.483 28.6305C650.106 36.252 626.07 44.988 602.429 54.6635C578.791 64.3488 555.552 75.0346 532.852 86.7632C487.437 110.193 444.216 137.961 404.313 169.919C384.362 185.903 365.259 202.939 347.136 220.968L333.721 234.675L320.76 248.8C318.56 251.118 316.537 253.604 314.447 256.012L308.198 263.282C303.962 268.069 300.06 273.144 296.044 278.11L290.054 285.603L284.319 293.289L278.595 300.982C277.643 302.269 276.678 303.538 275.751 304.841L273.026 308.787C269.408 314.049 265.732 319.282 262.151 324.578L251.819 340.727C238.387 362.481 226.063 384.907 215.012 407.971C212.286 413.754 209.727 419.606 207.08 425.425L205.107 429.799C204.456 431.259 203.772 432.706 203.189 434.193L199.574 443.068L195.96 451.942L194.154 456.385C193.57 457.872 193.041 459.378 192.491 460.879L185.907 478.885C184.761 481.865 183.826 484.925 182.833 487.955L179.871 497.074L176.909 506.193C176.392 507.707 175.961 509.245 175.531 510.782L174.218 515.389L168.989 533.832C167.384 540.009 165.924 546.238 164.374 552.434L162.094 561.74C161.362 564.85 160.77 567.993 160.101 571.11L156.194 589.874C155.85 591.435 155.59 593.009 155.32 594.585L154.51 599.303L152.891 608.75C151.832 615.05 150.626 621.329 149.862 627.671L147.266 646.657L146.614 651.404C146.407 652.987 146.273 654.577 146.108 656.162L145.128 665.692C144.49 672.049 143.788 678.398 143.21 684.753L141.895 703.865C138.609 754.848 139.14 806.031 142.741 856.953C139.462 806.006 139.26 754.838 142.878 703.929L144.244 684.817C144.844 678.468 145.569 672.134 146.229 665.783L147.242 656.267C147.417 654.679 147.561 653.088 147.77 651.514L148.433 646.775L151.098 627.826C151.886 621.5 153.116 615.236 154.196 608.942L155.85 599.519L156.682 594.806C156.964 593.238 157.214 591.666 157.568 590.104L161.536 571.388C162.215 568.269 162.821 565.144 163.564 562.042L165.88 552.759C167.443 546.58 168.92 540.378 170.546 534.207L175.838 515.823L177.153 511.226C177.583 509.689 178.026 508.159 178.533 506.647L181.501 497.557L184.469 488.468C185.462 485.437 186.401 482.397 187.547 479.417L194.131 461.462C194.693 459.969 195.212 458.465 195.796 456.978L197.606 452.555L201.226 443.71L204.847 434.864C205.43 433.377 206.107 431.942 206.757 430.482L208.725 426.13C211.376 420.33 213.937 414.488 216.657 408.726C227.704 385.745 240.023 363.392 253.439 341.712L263.762 325.616C267.337 320.342 271.007 315.131 274.628 309.878L277.346 305.954C278.276 304.661 279.241 303.392 280.194 302.115L285.914 294.452L291.636 286.8L297.612 279.341C301.609 274.379 305.493 269.317 309.712 264.545L315.932 257.28C318.022 254.872 320.037 252.398 322.217 250.084L335.131 235.979L348.491 222.303C366.55 204.308 385.586 187.296 405.459 171.328C445.209 139.371 488.348 111.701 533.556 88.1093C556.171 76.3164 579.336 65.5643 602.909 55.8106C626.482 46.0569 650.456 37.2624 674.782 29.5392L683.906 26.6412L693.068 23.8784C696.121 22.9372 699.189 22.0646 702.256 21.192C705.325 20.3292 708.387 19.4271 711.462 18.5937C723.763 15.209 736.14 12.0946 748.577 9.22313C761.008 6.37325 773.503 3.78588 786.064 1.52182C798.629 -0.722653 811.236 -2.76139 823.933 -4.11411Z" fill="url(#paint0_linear_507_3188)" fill-opacity="0.5"/>
    <defs>
        <linearGradient id="paint0_linear_507_3188" x1="894.533" y1="340.912" x2="70.5044" y2="509.527" gradientUnits="userSpaceOnUse">
            <stop stop-color="#24FEC1"/>
            <stop offset="1" stop-color="#A8FF35"/>
        </linearGradient>
    </defs>
</svg>
