<svg width="164" height="164" viewBox="0 0 164 164" fill="none" xmlns="http://www.w3.org/2000/svg">
    <path fill-rule="evenodd" clip-rule="evenodd" d="M76.9998 36.0111L61.4999 27.0622C61.1905 26.8836 60.8093 26.8836 60.4999 27.0622L13.6724 54.0981C13.363 54.2767 13.1724 54.6069 13.1724 54.9641V109.036C13.1724 109.393 13.363 109.723 13.6724 109.902L60.4999 136.938C60.8093 137.116 61.1905 137.116 61.4999 136.938L77 127.989L82 130.876L63.9999 141.268C62.1435 142.34 59.8563 142.34 57.9999 141.268L11.1724 114.232C9.31595 113.16 8.17236 111.18 8.17236 109.036V54.9641C8.17236 52.8205 9.31596 50.8398 11.1724 49.768L57.9999 22.7321C59.8563 21.6603 62.1435 21.6603 63.9999 22.7321L81.9998 33.1243L76.9998 36.0111Z" fill="#34C759"/>
    <path fill-rule="evenodd" clip-rule="evenodd" d="M149.327 53.5207L104.5 27.6395C103.572 27.1036 102.428 27.1036 101.5 27.6395L56.6724 53.5207C55.7442 54.0566 55.1724 55.0469 55.1724 56.1187V107.881C55.1724 108.953 55.7442 109.943 56.6724 110.479L101.5 136.36C102.428 136.896 103.572 136.896 104.5 136.36L149.327 110.479C150.256 109.943 150.827 108.953 150.827 107.881V56.1187C150.827 55.0469 150.256 54.0566 149.327 53.5207ZM107 23.3093C104.525 21.8803 101.475 21.8803 98.9999 23.3093L54.1724 49.1905C51.6972 50.6196 50.1724 53.2606 50.1724 56.1187V107.881C50.1724 110.739 51.6972 113.38 54.1724 114.809L98.9999 140.691C101.475 142.12 104.525 142.12 107 140.691L151.827 114.809C154.303 113.38 155.827 110.739 155.827 107.881V56.1187C155.827 53.2606 154.303 50.6196 151.827 49.1905L107 23.3093Z" fill="#34C759"/>
    <path d="M120.623 76.0062C120.294 75.0127 119.666 74.145 118.826 73.5212C117.985 72.8974 116.973 72.5479 115.927 72.5203C114.625 72.5203 113.376 72.003 112.456 71.0823C111.535 70.1615 111.018 68.9127 111.018 67.6105V60.5732C111.051 59.5101 110.774 58.4603 110.223 57.5511C109.671 56.6419 108.867 55.9123 107.909 55.4506C106.84 54.9428 105.617 54.8609 104.489 55.2215C103.359 55.6011 102.397 56.3656 101.773 57.3818L85.0012 84.0419L85.214 84.1729C85.0611 84.7325 84.9895 85.3112 85.0012 85.8913C85.0055 86.6113 85.1328 87.3253 85.3776 88.0025C85.707 88.996 86.3346 89.8638 87.175 90.4876C88.0154 91.1114 89.0276 91.4608 90.0737 91.4884C91.3756 91.4884 92.6242 92.0057 93.5448 92.9265C94.4654 93.8472 94.9825 95.096 94.9825 96.3982V103.436C94.952 104.498 95.2292 105.547 95.7808 106.456C96.3323 107.365 97.1348 108.095 98.0915 108.558C98.7162 108.851 99.3979 109.002 100.088 109C100.57 109.002 101.05 108.93 101.511 108.787C102.639 108.403 103.599 107.639 104.228 106.627L120.083 81.3415C120.698 80.3619 121.016 79.225 120.999 78.0684C120.989 77.3649 120.862 76.6679 120.623 76.0062Z" fill="#34C759"/>
</svg>
