<svg width="93" height="92" viewBox="0 0 93 92" fill="none" xmlns="http://www.w3.org/2000/svg">
    <path d="M25.1054 65.6842L47.0001 78L60.4738 70.421L68.8949 65.6842M73.9475 57.7894V32.5263L52.8949 20.6841L73.9475 57.7894ZM41.1054 20.6841L20.0527 32.5263V57.7894L41.1054 20.6841Z" stroke="#34C759" stroke-width="3" stroke-linecap="round" stroke-linejoin="round"/>
    <path d="M41.9472 38.842L36.8945 41.7894V47.6841V53.5789L41.9472 56.5262L46.9998 59.4736L52.0524 56.5262L57.1051 53.5789V47.6841V41.7894L52.0524 38.842L46.9998 35.8946L41.9472 38.842Z" stroke="#34C759" stroke-width="3" stroke-linecap="round" stroke-linejoin="round"/>
    <path d="M47 35.8948V24.1053" stroke="#34C759" stroke-width="3" stroke-linecap="round" stroke-linejoin="round"/>
    <path d="M57.1055 52.7368L68.895 59.4737" stroke="#34C759" stroke-width="3" stroke-linecap="round" stroke-linejoin="round"/>
    <path d="M36.895 52.7368L25.1055 59.4737" stroke="#34C759" stroke-width="3" stroke-linecap="round" stroke-linejoin="round"/>
    <path d="M46.9999 24.1053C49.7904 24.1053 52.0525 21.8431 52.0525 19.0526C52.0525 16.2621 49.7904 14 46.9999 14C44.2094 14 41.9473 16.2621 41.9473 19.0526C41.9473 21.8431 44.2094 24.1053 46.9999 24.1053Z" stroke="#34C759" stroke-width="3" stroke-linecap="round" stroke-linejoin="round"/>
    <path d="M20.0526 67.8947C22.8431 67.8947 25.1053 65.6326 25.1053 62.8421C25.1053 60.0516 22.8431 57.7895 20.0526 57.7895C17.2621 57.7895 15 60.0516 15 62.8421C15 65.6326 17.2621 67.8947 20.0526 67.8947Z" stroke="#34C759" stroke-width="3" stroke-linecap="round" stroke-linejoin="round"/>
    <path d="M73.9472 67.8947C76.7377 67.8947 78.9998 65.6326 78.9998 62.8421C78.9998 60.0516 76.7377 57.7895 73.9472 57.7895C71.1567 57.7895 68.8945 60.0516 68.8945 62.8421C68.8945 65.6326 71.1567 67.8947 73.9472 67.8947Z" stroke="#34C759" stroke-width="3" stroke-linecap="round" stroke-linejoin="round"/>
</svg>
