<svg width="164" height="164" viewBox="0 0 164 164" fill="none" xmlns="http://www.w3.org/2000/svg">
    <path d="M109.885 105.581L107.01 108.414C106.249 109.164 105.253 109.539 104.258 109.539C103.204 109.539 102.15 109.118 101.383 108.287L82.8266 88.27C81.1227 86.4293 79.6061 84.4328 78.2008 82.3613C78.0017 82.067 77.7733 81.7901 77.5157 81.5362C77.4161 81.4381 77.3166 81.3515 77.2229 81.2765L67.7838 71.9749C67.0109 71.2133 65.9921 70.8266 64.9791 70.8266C64.0305 70.8266 63.0877 71.1613 62.3441 71.848C62.309 71.8826 62.2738 71.9114 62.2387 71.9461C61.2784 72.8924 60.7573 74.0984 60.6519 75.3332C60.6109 75.7775 60.4118 76.193 60.0897 76.5103L58.0696 78.4953C57.8763 78.6799 57.6304 78.778 57.3845 78.778C57.1327 78.778 56.8868 78.6857 56.6935 78.4953L51.3533 73.2328C50.9727 72.8578 50.9727 72.2519 51.3533 71.8768L53.2505 70.0073C53.596 69.6668 54.0527 69.4764 54.5387 69.4476C55.1887 69.4072 55.8328 69.2571 56.4418 68.9975C57.0449 68.7321 57.6129 68.357 58.1106 67.8723C58.8484 67.151 59.3285 66.2739 59.5627 65.3507C59.9141 63.9659 60.6636 62.7137 61.6883 61.7039C61.6883 61.7039 68.914 53.5391 78.6985 53.5391C81.5384 53.5391 84.595 54.2257 87.7511 56.0029L87.0953 56.8223L81.8546 56.026L86.1701 57.9648L85.362 58.9688C84.8292 58.8881 84.2612 58.8534 83.6698 58.8534C77.744 58.8534 69.3473 62.6214 72.4975 66.5163L82.7329 76.6026C82.7329 76.6026 83.2658 77.0181 83.5468 77.197C85.7309 78.6049 87.7745 80.2263 89.701 81.9632L109.779 100.041C111.396 101.507 111.454 104.034 109.885 105.581Z" fill="#34C759"/>
    <rect x="24.5" y="24.5" width="115" height="115" rx="29.5" stroke="#34C759" stroke-width="5"/>
</svg>
