<svg width="25" height="20" viewBox="0 0 25 20" fill="none" xmlns="http://www.w3.org/2000/svg">
    <path d="M8.05016 19.75C17.1045 19.75 22.0583 12.2467 22.0583 5.74186C22.0583 5.53092 22.0536 5.3153 22.0442 5.10436C23.0079 4.40746 23.8395 3.54425 24.5 2.5553C23.6025 2.9546 22.6496 3.21538 21.6739 3.32874C22.7013 2.71291 23.4705 1.74547 23.8391 0.605767C22.8726 1.17856 21.8156 1.58261 20.7134 1.80061C19.9708 1.01156 18.989 0.489116 17.9197 0.314051C16.8504 0.138986 15.7532 0.32105 14.7977 0.832096C13.8423 1.34314 13.0818 2.15471 12.6338 3.14131C12.1859 4.12792 12.0754 5.23462 12.3195 6.2903C10.3625 6.19209 8.44794 5.6837 6.69998 4.7981C4.95203 3.91249 3.40969 2.66944 2.17297 1.14952C1.5444 2.23324 1.35206 3.51565 1.63503 4.73609C1.918 5.95654 2.65506 7.02345 3.69641 7.71999C2.91463 7.69517 2.14998 7.48468 1.46563 7.10592V7.16686C1.46492 8.30415 1.8581 9.40659 2.57831 10.2868C3.29852 11.167 4.30132 11.7706 5.41625 11.995C4.69206 12.1931 3.93198 12.222 3.19484 12.0794C3.50945 13.0574 4.12157 13.9129 4.94577 14.5263C5.76997 15.1398 6.76512 15.4806 7.79234 15.5012C6.04842 16.8711 3.89417 17.6141 1.67656 17.6106C1.28329 17.61 0.890399 17.5859 0.5 17.5384C2.75286 18.9837 5.37353 19.7514 8.05016 19.75Z" fill="white"/>
</svg>
