<svg width="24" height="24" viewBox="0 0 24 24" fill="none" xmlns="http://www.w3.org/2000/svg">
	<path fill-rule="evenodd" clip-rule="evenodd" d="M15.8146 2C16.684 2 17.1815 2.43994 17.2499 3.22823H5.77577C5.83706 2.43994 6.33166 2 7.2111 2H15.8146ZM17.4067 4.45646C18.3902 4.45646 18.842 4.95607 18.9646 5.79432H4.05964C4.17367 4.95607 4.62551 4.45646 5.609 4.45646H17.4052H17.4067ZM18.0338 21.9986C19.9652 21.9986 21 20.9994 21 19.1272V10.073C21 8.20915 19.9652 7.20991 18.0338 7.20991H4.96617C3.03481 7.20991 2 8.20915 2 10.073V19.1272C2 21.0008 3.03481 22 4.96617 22H18.0338V21.9986ZM5.14861 20.0598H17.8514C18.5983 20.0598 19.0074 19.6865 19.0074 18.9162V10.2839C19.0074 9.5137 18.5983 9.14871 17.8514 9.14871H5.14861C4.39317 9.14871 3.99265 9.5137 3.99265 10.2839V18.9162C3.99265 19.6865 4.39175 20.0598 5.14861 20.0598ZM8.10765 14.045C8.16368 14.0439 8.2176 14.0239 8.26022 13.9885C8.30284 13.9531 8.33153 13.9044 8.34141 13.8507C8.50533 12.6169 8.52386 12.6141 9.80953 12.3837L9.84659 12.3768C9.97772 12.3504 10.0561 12.2658 10.0561 12.1478C10.0565 12.0912 10.0352 12.0364 9.99654 11.9941C9.95784 11.9518 9.90441 11.925 9.84659 11.9188C8.54239 11.7412 8.50675 11.7328 8.34141 10.4533C8.33433 10.3983 8.30644 10.348 8.2632 10.312C8.21995 10.2761 8.16448 10.2572 8.10765 10.259C7.97652 10.259 7.88957 10.3353 7.87247 10.4616C7.71568 11.6773 7.69002 11.6829 6.37442 11.916L6.35874 11.9188C6.23616 11.9438 6.14921 12.0382 6.14921 12.1478C6.14921 12.2741 6.23616 12.3504 6.37584 12.3768C7.69002 12.5711 7.71568 12.6058 7.87247 13.834C7.88957 13.9603 7.97652 14.045 8.10765 14.045ZM13.2389 18.6789C13.2305 18.7558 13.193 18.827 13.1337 18.8785C13.0745 18.93 12.9977 18.9583 12.9182 18.9579C12.7443 18.9579 12.6218 18.8469 12.5961 18.6789C12.2041 16.1031 11.8649 15.7895 9.29925 15.4592C9.21809 15.4542 9.14201 15.419 9.08681 15.3608C9.03161 15.3027 9.00152 15.2261 9.00278 15.1469C9.00278 14.9762 9.1168 14.8499 9.29925 14.8333C11.8734 14.5529 12.2398 14.1893 12.5961 11.6232C12.6218 11.4442 12.7529 11.3429 12.9182 11.3429C13.0836 11.3429 13.2133 11.4539 13.2404 11.6218C13.6138 14.206 13.9787 14.5363 16.5287 14.8333C16.7111 14.8499 16.8323 14.9776 16.8323 15.1469C16.8323 15.3162 16.7025 15.4425 16.5187 15.4592C13.953 15.7395 13.5881 16.1031 13.2404 18.6789H13.2389Z" fill="#0070F3"/>
	<path fill-rule="evenodd" clip-rule="evenodd" d="M15.8146 2C16.684 2 17.1815 2.43994 17.2499 3.22823H5.77577C5.83706 2.43994 6.33166 2 7.2111 2H15.8146ZM17.4067 4.45646C18.3902 4.45646 18.842 4.95607 18.9646 5.79432H4.05964C4.17367 4.95607 4.62551 4.45646 5.609 4.45646H17.4052H17.4067ZM18.0338 21.9986C19.9652 21.9986 21 20.9994 21 19.1272V10.073C21 8.20915 19.9652 7.20991 18.0338 7.20991H4.96617C3.03481 7.20991 2 8.20915 2 10.073V19.1272C2 21.0008 3.03481 22 4.96617 22H18.0338V21.9986ZM5.14861 20.0598H17.8514C18.5983 20.0598 19.0074 19.6865 19.0074 18.9162V10.2839C19.0074 9.5137 18.5983 9.14871 17.8514 9.14871H5.14861C4.39317 9.14871 3.99265 9.5137 3.99265 10.2839V18.9162C3.99265 19.6865 4.39175 20.0598 5.14861 20.0598ZM8.10765 14.045C8.16368 14.0439 8.2176 14.0239 8.26022 13.9885C8.30284 13.9531 8.33153 13.9044 8.34141 13.8507C8.50533 12.6169 8.52386 12.6141 9.80953 12.3837L9.84659 12.3768C9.97772 12.3504 10.0561 12.2658 10.0561 12.1478C10.0565 12.0912 10.0352 12.0364 9.99654 11.9941C9.95784 11.9518 9.90441 11.925 9.84659 11.9188C8.54239 11.7412 8.50675 11.7328 8.34141 10.4533C8.33433 10.3983 8.30644 10.348 8.2632 10.312C8.21995 10.2761 8.16448 10.2572 8.10765 10.259C7.97652 10.259 7.88957 10.3353 7.87247 10.4616C7.71568 11.6773 7.69002 11.6829 6.37442 11.916L6.35874 11.9188C6.23616 11.9438 6.14921 12.0382 6.14921 12.1478C6.14921 12.2741 6.23616 12.3504 6.37584 12.3768C7.69002 12.5711 7.71568 12.6058 7.87247 13.834C7.88957 13.9603 7.97652 14.045 8.10765 14.045ZM13.2389 18.6789C13.2305 18.7558 13.193 18.827 13.1337 18.8785C13.0745 18.93 12.9977 18.9583 12.9182 18.9579C12.7443 18.9579 12.6218 18.8469 12.5961 18.6789C12.2041 16.1031 11.8649 15.7895 9.29925 15.4592C9.21809 15.4542 9.14201 15.419 9.08681 15.3608C9.03161 15.3027 9.00152 15.2261 9.00278 15.1469C9.00278 14.9762 9.1168 14.8499 9.29925 14.8333C11.8734 14.5529 12.2398 14.1893 12.5961 11.6232C12.6218 11.4442 12.7529 11.3429 12.9182 11.3429C13.0836 11.3429 13.2133 11.4539 13.2404 11.6218C13.6138 14.206 13.9787 14.5363 16.5287 14.8333C16.7111 14.8499 16.8323 14.9776 16.8323 15.1469C16.8323 15.3162 16.7025 15.4425 16.5187 15.4592C13.953 15.7395 13.5881 16.1031 13.2404 18.6789H13.2389Z" fill="#0070F3"/>
</svg>



