<svg width="24" height="24" viewBox="0 0 24 24" fill="none" xmlns="http://www.w3.org/2000/svg">
	<path d="M12 16.0625C13.7259 16.0625 15.125 14.6634 15.125 12.9375C15.125 11.2116 13.7259 9.8125 12 9.8125C10.2741 9.8125 8.875 11.2116 8.875 12.9375C8.875 14.6634 10.2741 16.0625 12 16.0625Z" stroke="#666666" stroke-width="1.5" stroke-linecap="round" stroke-linejoin="round"/>
	<path d="M17.3125 11.0625C18.0404 11.0613 18.7586 11.2302 19.4096 11.5557C20.0607 11.8813 20.6267 12.3544 21.0625 12.9375" stroke="#666666" stroke-width="1.5" stroke-linecap="round" stroke-linejoin="round"/>
	<path d="M2.9375 12.9375C3.37328 12.3544 3.93928 11.8813 4.59036 11.5557C5.24144 11.2302 5.95957 11.0613 6.6875 11.0625" stroke="#666666" stroke-width="1.5" stroke-linecap="round" stroke-linejoin="round"/>
	<path d="M7.49988 18.875C7.91146 18.0321 8.5515 17.3217 9.3471 16.8248C10.1427 16.3279 11.0619 16.0645 11.9999 16.0645C12.9379 16.0645 13.8571 16.3279 14.6527 16.8248C15.4483 17.3217 16.0883 18.0321 16.4999 18.875" stroke="#666666" stroke-width="1.5" stroke-linecap="round" stroke-linejoin="round"/>
	<path d="M6.6876 11.0625C6.2131 11.063 5.74826 10.9284 5.3474 10.6745C4.94654 10.4206 4.62621 10.0579 4.42384 9.62874C4.22146 9.19956 4.14541 8.72165 4.20456 8.25085C4.26371 7.78006 4.45562 7.33581 4.75787 6.97003C5.06012 6.60426 5.46022 6.33205 5.91143 6.18521C6.36264 6.03838 6.84632 6.02298 7.30595 6.14083C7.76558 6.25867 8.18219 6.50489 8.50708 6.85071C8.83198 7.19653 9.05175 7.62767 9.14072 8.09375" stroke="#666666" stroke-width="1.5" stroke-linecap="round" stroke-linejoin="round"/>
	<path d="M14.8595 8.09375C14.9485 7.62767 15.1682 7.19653 15.4931 6.85071C15.818 6.50489 16.2346 6.25867 16.6943 6.14083C17.1539 6.02298 17.6376 6.03838 18.0888 6.18521C18.54 6.33205 18.9401 6.60426 19.2423 6.97003C19.5446 7.33581 19.7365 7.78006 19.7957 8.25085C19.8548 8.72165 19.7788 9.19956 19.5764 9.62874C19.374 10.0579 19.0537 10.4206 18.6528 10.6745C18.252 10.9284 17.7871 11.063 17.3126 11.0625" stroke="#666666" stroke-width="1.5" stroke-linecap="round" stroke-linejoin="round"/>
</svg>
