<svg width="241" height="74" viewBox="0 0 241 74" fill="none" xmlns="http://www.w3.org/2000/svg">
	<rect width="241" height="2" fill="#EFEFEF"/>
	<rect x="12.5" y="27" width="214" height="46" rx="11" fill="white" stroke="#E6E8EC" stroke-width="2"/>
	<path d="M63.7415 56V44.3636H68.1051C68.9991 44.3636 69.7491 44.5303 70.3551 44.8636C70.965 45.197 71.4252 45.6553 71.7358 46.2386C72.0502 46.8182 72.2074 47.4773 72.2074 48.2159C72.2074 48.9621 72.0502 49.625 71.7358 50.2045C71.4214 50.7841 70.9574 51.2405 70.3438 51.5739C69.7301 51.9034 68.9744 52.0682 68.0767 52.0682H65.1847V50.3352H67.7926C68.3153 50.3352 68.7434 50.2443 69.0767 50.0625C69.41 49.8807 69.6563 49.6307 69.8153 49.3125C69.9782 48.9943 70.0597 48.6288 70.0597 48.2159C70.0597 47.803 69.9782 47.4394 69.8153 47.125C69.6563 46.8106 69.4081 46.5663 69.071 46.392C68.7377 46.214 68.3078 46.125 67.7812 46.125H65.8494V56H63.7415ZM76.0043 44.3636V56H73.9474V44.3636H76.0043ZM83.6818 52.3295V47.2727H85.7386V56H83.7443V54.4489H83.6534C83.4564 54.9375 83.1326 55.3371 82.6818 55.6477C82.2348 55.9583 81.6837 56.1136 81.0284 56.1136C80.4564 56.1136 79.9508 55.9867 79.5114 55.733C79.0758 55.4754 78.7348 55.1023 78.4886 54.6136C78.2424 54.1212 78.1193 53.5265 78.1193 52.8295V47.2727H80.1761V52.5114C80.1761 53.0644 80.3277 53.5038 80.6307 53.8295C80.9337 54.1553 81.3314 54.3182 81.8239 54.3182C82.1269 54.3182 82.4205 54.2443 82.7045 54.0966C82.9886 53.9489 83.2216 53.7292 83.4034 53.4375C83.589 53.142 83.6818 52.7727 83.6818 52.3295ZM91.6491 59.4545C90.9105 59.4545 90.276 59.3542 89.7457 59.1534C89.2154 58.9564 88.7893 58.6913 88.4673 58.358C88.1454 58.0246 87.9219 57.6553 87.7969 57.25L89.6491 56.8011C89.7325 56.9716 89.8537 57.1402 90.0128 57.3068C90.1719 57.4773 90.3859 57.6174 90.6548 57.7273C90.9276 57.8409 91.2704 57.8977 91.6832 57.8977C92.2666 57.8977 92.7495 57.7557 93.1321 57.4716C93.5147 57.1913 93.706 56.7292 93.706 56.0852V54.4318H93.6037C93.4976 54.6439 93.3423 54.8617 93.1378 55.0852C92.937 55.3087 92.67 55.4962 92.3366 55.6477C92.0071 55.7992 91.5923 55.875 91.0923 55.875C90.4219 55.875 89.8139 55.7178 89.2685 55.4034C88.7268 55.0852 88.295 54.6117 87.973 53.983C87.6548 53.3504 87.4957 52.5587 87.4957 51.608C87.4957 50.6496 87.6548 49.8409 87.973 49.1818C88.295 48.5189 88.7287 48.017 89.2741 47.6761C89.8196 47.3314 90.4276 47.1591 91.098 47.1591C91.6094 47.1591 92.0298 47.2462 92.3594 47.4205C92.6927 47.5909 92.9579 47.7973 93.1548 48.0398C93.3518 48.2784 93.5014 48.5038 93.6037 48.7159H93.7173V47.2727H95.7457V56.142C95.7457 56.8883 95.5677 57.5057 95.2116 57.9943C94.8556 58.483 94.3688 58.8485 93.7514 59.0909C93.134 59.3333 92.4332 59.4545 91.6491 59.4545ZM91.6662 54.2614C92.1018 54.2614 92.473 54.1553 92.7798 53.9432C93.0866 53.7311 93.3196 53.4261 93.4787 53.0284C93.6378 52.6307 93.7173 52.1534 93.7173 51.5966C93.7173 51.0473 93.6378 50.5663 93.4787 50.1534C93.3234 49.7405 93.0923 49.4205 92.7855 49.1932C92.4825 48.9621 92.1094 48.8466 91.6662 48.8466C91.2079 48.8466 90.8253 48.9659 90.5185 49.2045C90.2116 49.4432 89.9806 49.7708 89.8253 50.1875C89.67 50.6004 89.5923 51.0701 89.5923 51.5966C89.5923 52.1307 89.67 52.5985 89.8253 53C89.9844 53.3977 90.2173 53.7083 90.5241 53.9318C90.8348 54.1515 91.2154 54.2614 91.6662 54.2614ZM97.8537 56V47.2727H99.9105V56H97.8537ZM98.8878 46.0341C98.562 46.0341 98.2817 45.9261 98.0469 45.7102C97.812 45.4905 97.6946 45.2273 97.6946 44.9205C97.6946 44.6098 97.812 44.3466 98.0469 44.1307C98.2817 43.911 98.562 43.8011 98.8878 43.8011C99.2173 43.8011 99.4976 43.911 99.7287 44.1307C99.9635 44.3466 100.081 44.6098 100.081 44.9205C100.081 45.2273 99.9635 45.4905 99.7287 45.7102C99.4976 45.9261 99.2173 46.0341 98.8878 46.0341ZM104.082 50.8864V56H102.026V47.2727H103.991V48.7557H104.094C104.295 48.267 104.615 47.8788 105.054 47.5909C105.497 47.303 106.045 47.1591 106.696 47.1591C107.298 47.1591 107.823 47.2879 108.27 47.5455C108.721 47.803 109.069 48.1761 109.315 48.6648C109.565 49.1534 109.688 49.7462 109.685 50.4432V56H107.628V50.7614C107.628 50.178 107.476 49.7216 107.173 49.392C106.874 49.0625 106.459 48.8977 105.929 48.8977C105.569 48.8977 105.249 48.9773 104.969 49.1364C104.692 49.2917 104.474 49.517 104.315 49.8125C104.16 50.108 104.082 50.4659 104.082 50.8864ZM118.673 49.5795L116.798 49.7841C116.745 49.5947 116.652 49.4167 116.52 49.25C116.391 49.0833 116.217 48.9489 115.997 48.8466C115.777 48.7443 115.509 48.6932 115.19 48.6932C114.762 48.6932 114.402 48.786 114.111 48.9716C113.823 49.1572 113.681 49.3977 113.685 49.6932C113.681 49.947 113.774 50.1534 113.963 50.3125C114.156 50.4716 114.474 50.6023 114.918 50.7045L116.406 51.0227C117.232 51.2008 117.846 51.483 118.247 51.8693C118.652 52.2557 118.857 52.7614 118.861 53.3864C118.857 53.9356 118.696 54.4205 118.378 54.8409C118.063 55.2576 117.626 55.5833 117.065 55.8182C116.505 56.053 115.861 56.1705 115.134 56.1705C114.065 56.1705 113.205 55.947 112.554 55.5C111.902 55.0492 111.514 54.4223 111.389 53.6193L113.395 53.4261C113.486 53.8201 113.679 54.1174 113.974 54.3182C114.27 54.5189 114.654 54.6193 115.128 54.6193C115.616 54.6193 116.009 54.5189 116.304 54.3182C116.603 54.1174 116.753 53.8693 116.753 53.5739C116.753 53.3239 116.656 53.1174 116.463 52.9545C116.274 52.7917 115.978 52.6667 115.577 52.5795L114.088 52.267C113.251 52.0928 112.632 51.7992 112.23 51.3864C111.829 50.9697 111.63 50.4432 111.634 49.8068C111.63 49.2689 111.776 48.803 112.071 48.4091C112.37 48.0114 112.785 47.7045 113.315 47.4886C113.849 47.2689 114.465 47.1591 115.162 47.1591C116.185 47.1591 116.99 47.3769 117.577 47.8125C118.168 48.2481 118.533 48.8371 118.673 49.5795ZM134.577 48.2898H132.452C132.391 47.9413 132.279 47.6326 132.116 47.3636C131.954 47.0909 131.751 46.8598 131.509 46.6705C131.266 46.4811 130.99 46.339 130.679 46.2443C130.372 46.1458 130.041 46.0966 129.685 46.0966C129.052 46.0966 128.491 46.2557 128.003 46.5739C127.514 46.8883 127.132 47.3504 126.855 47.9602C126.579 48.5663 126.44 49.3068 126.44 50.1818C126.44 51.072 126.579 51.822 126.855 52.4318C127.135 53.0379 127.518 53.4962 128.003 53.8068C128.491 54.1136 129.05 54.267 129.679 54.267C130.027 54.267 130.353 54.2216 130.656 54.1307C130.963 54.036 131.238 53.8977 131.48 53.7159C131.726 53.5341 131.933 53.3106 132.099 53.0455C132.27 52.7803 132.387 52.4773 132.452 52.1364L134.577 52.1477C134.497 52.7008 134.325 53.2197 134.06 53.7045C133.798 54.1894 133.455 54.6174 133.031 54.9886C132.607 55.3561 132.111 55.6439 131.543 55.8523C130.974 56.0568 130.344 56.1591 129.651 56.1591C128.628 56.1591 127.715 55.9223 126.912 55.4489C126.109 54.9754 125.476 54.2917 125.014 53.3977C124.552 52.5038 124.321 51.4318 124.321 50.1818C124.321 48.928 124.554 47.8561 125.02 46.9659C125.486 46.072 126.12 45.3883 126.923 44.9148C127.726 44.4413 128.635 44.2045 129.651 44.2045C130.298 44.2045 130.901 44.2955 131.457 44.4773C132.014 44.6591 132.51 44.9261 132.946 45.2784C133.382 45.6269 133.74 46.0549 134.02 46.5625C134.304 47.0663 134.49 47.642 134.577 48.2898ZM140.28 56.1705C139.405 56.1705 138.649 55.9886 138.013 55.625C137.38 55.2576 136.893 54.7386 136.553 54.0682C136.212 53.3939 136.041 52.6004 136.041 51.6875C136.041 50.7898 136.212 50.0019 136.553 49.3239C136.897 48.642 137.378 48.1117 137.996 47.733C138.613 47.3504 139.339 47.1591 140.172 47.1591C140.71 47.1591 141.217 47.2462 141.695 47.4205C142.176 47.5909 142.6 47.8561 142.967 48.2159C143.339 48.5758 143.63 49.0341 143.842 49.5909C144.054 50.1439 144.161 50.803 144.161 51.5682V52.1989H137.007V50.8125H142.189C142.185 50.4186 142.1 50.0682 141.933 49.7614C141.767 49.4508 141.534 49.2064 141.234 49.0284C140.939 48.8504 140.594 48.7614 140.2 48.7614C139.78 48.7614 139.411 48.8636 139.092 49.0682C138.774 49.2689 138.526 49.5341 138.348 49.8636C138.174 50.1894 138.085 50.5473 138.081 50.9375V52.1477C138.081 52.6553 138.174 53.0909 138.359 53.4545C138.545 53.8144 138.804 54.0909 139.138 54.2841C139.471 54.4735 139.861 54.5682 140.308 54.5682C140.607 54.5682 140.878 54.5265 141.121 54.4432C141.363 54.3561 141.573 54.2292 141.751 54.0625C141.929 53.8958 142.064 53.6894 142.155 53.4432L144.075 53.6591C143.954 54.1667 143.723 54.6098 143.382 54.9886C143.045 55.3636 142.613 55.6553 142.087 55.8636C141.56 56.0682 140.958 56.1705 140.28 56.1705ZM147.957 50.8864V56H145.901V47.2727H147.866V48.7557H147.969C148.17 48.267 148.49 47.8788 148.929 47.5909C149.372 47.303 149.92 47.1591 150.571 47.1591C151.173 47.1591 151.698 47.2879 152.145 47.5455C152.596 47.803 152.944 48.1761 153.19 48.6648C153.44 49.1534 153.563 49.7462 153.56 50.4432V56H151.503V50.7614C151.503 50.178 151.351 49.7216 151.048 49.392C150.749 49.0625 150.334 48.8977 149.804 48.8977C149.444 48.8977 149.124 48.9773 148.844 49.1364C148.567 49.2917 148.349 49.517 148.19 49.8125C148.035 50.108 147.957 50.4659 147.957 50.8864ZM160.009 47.2727V48.8636H154.991V47.2727H160.009ZM156.23 45.1818H158.287V53.375C158.287 53.6515 158.329 53.8636 158.412 54.0114C158.499 54.1553 158.613 54.2538 158.753 54.3068C158.893 54.3598 159.048 54.3864 159.219 54.3864C159.348 54.3864 159.465 54.3769 159.571 54.358C159.681 54.339 159.764 54.322 159.821 54.3068L160.168 55.9148C160.058 55.9527 159.901 55.9943 159.696 56.0398C159.495 56.0852 159.249 56.1117 158.957 56.1193C158.442 56.1345 157.978 56.0568 157.565 55.8864C157.152 55.7121 156.825 55.4432 156.582 55.0795C156.344 54.7159 156.226 54.2614 156.23 53.7159V45.1818ZM165.499 56.1705C164.624 56.1705 163.868 55.9886 163.232 55.625C162.599 55.2576 162.112 54.7386 161.771 54.0682C161.43 53.3939 161.26 52.6004 161.26 51.6875C161.26 50.7898 161.43 50.0019 161.771 49.3239C162.116 48.642 162.597 48.1117 163.214 47.733C163.832 47.3504 164.557 47.1591 165.391 47.1591C165.929 47.1591 166.436 47.2462 166.913 47.4205C167.394 47.5909 167.819 47.8561 168.186 48.2159C168.557 48.5758 168.849 49.0341 169.061 49.5909C169.273 50.1439 169.379 50.803 169.379 51.5682V52.1989H162.226V50.8125H167.408C167.404 50.4186 167.319 50.0682 167.152 49.7614C166.985 49.4508 166.752 49.2064 166.453 49.0284C166.158 48.8504 165.813 48.7614 165.419 48.7614C164.999 48.7614 164.629 48.8636 164.311 49.0682C163.993 49.2689 163.745 49.5341 163.567 49.8636C163.393 50.1894 163.304 50.5473 163.3 50.9375V52.1477C163.3 52.6553 163.393 53.0909 163.578 53.4545C163.764 53.8144 164.023 54.0909 164.357 54.2841C164.69 54.4735 165.08 54.5682 165.527 54.5682C165.826 54.5682 166.097 54.5265 166.339 54.4432C166.582 54.3561 166.792 54.2292 166.97 54.0625C167.148 53.8958 167.283 53.6894 167.374 53.4432L169.294 53.6591C169.173 54.1667 168.942 54.6098 168.601 54.9886C168.264 55.3636 167.832 55.6553 167.305 55.8636C166.779 56.0682 166.177 56.1705 165.499 56.1705ZM171.119 56V47.2727H173.114V48.7273H173.205C173.364 48.2235 173.636 47.8352 174.023 47.5625C174.413 47.286 174.858 47.1477 175.358 47.1477C175.472 47.1477 175.598 47.1534 175.739 47.1648C175.883 47.1723 176.002 47.1856 176.097 47.2045V49.0966C176.009 49.0663 175.871 49.0398 175.682 49.017C175.496 48.9905 175.316 48.9773 175.142 48.9773C174.767 48.9773 174.43 49.0587 174.131 49.2216C173.835 49.3807 173.602 49.6023 173.432 49.8864C173.261 50.1705 173.176 50.4981 173.176 50.8693V56H171.119Z" fill="#353945"/>
</svg>
