<svg width="188" height="189" viewBox="0 0 188 189" fill="none" xmlns="http://www.w3.org/2000/svg">
    <g clip-path="url(#clip0_212_4599)">
        <path d="M96.6229 80.4202L112.722 90.3843L96.6229 100.342L80.524 90.3843L96.6229 80.4202Z" fill="#34C759" stroke="black"/>
        <path d="M97.123 96.6388V54.9041L113.021 86.8054L97.123 96.6388Z" fill="#34C759" stroke="black"/>
        <path d="M96.1229 96.6388L80.2247 86.8054L96.1229 54.9041V96.6388Z" fill="#34C759" stroke="black"/>
        <path d="M97.123 101.208L112.145 91.9168L97.123 116.401V101.208Z" fill="#34C759" stroke="black"/>
        <path d="M96.1229 101.208V116.401L81.1005 91.9167L96.1229 101.208Z" fill="#34C759" stroke="black"/>
    </g>
    <path d="M123.576 145.282L123.502 128.195H156.59L156.59 145.25V145.287L156.595 145.325C156.608 145.407 156.565 145.651 156.063 145.966L141.906 153.964C141.905 153.965 141.904 153.965 141.903 153.966C141.493 154.189 141.036 154.313 140.57 154.328C140.107 154.343 139.646 154.25 139.225 154.057L123.81 145.87L123.786 145.858L123.761 145.847C123.681 145.816 123.615 145.755 123.577 145.676L123.129 145.894L123.577 145.676C123.539 145.598 123.531 145.508 123.556 145.425L123.576 145.355L123.576 145.282Z" fill="#34C759" stroke="black"/>
    <path d="M139.274 119.051L139.275 119.051L139.282 119.047C139.692 118.814 140.147 118.685 140.612 118.669C141.07 118.654 141.525 118.749 141.944 118.947L156.172 127.338L156.174 127.339C156.505 127.532 156.594 127.741 156.598 127.863C156.602 127.969 156.545 128.176 156.178 128.39L141.919 136.354C141.919 136.354 141.919 136.354 141.919 136.354C141.505 136.583 141.047 136.708 140.581 136.722C140.117 136.735 139.655 136.636 139.233 136.432L123.781 128.389C123.518 128.225 123.49 128.068 123.503 127.971C123.52 127.838 123.641 127.604 124.027 127.376L139.274 119.051Z" fill="#34C759" stroke="black"/>
    <path d="M123.576 122.265L123.506 116.469H156.59L156.59 121.797L156.59 121.835L156.595 121.872C156.608 121.955 156.565 122.199 156.063 122.514L141.906 130.512C141.905 130.512 141.904 130.513 141.903 130.513C141.493 130.736 141.036 130.861 140.57 130.876C140.105 130.891 139.643 130.797 139.22 130.602L123.8 122.851L123.781 122.842L123.761 122.834C123.681 122.802 123.615 122.741 123.577 122.662C123.539 122.584 123.531 122.494 123.556 122.411L123.577 122.339L123.576 122.265Z" fill="black" stroke="black"/>
    <path d="M139.274 107.325L139.275 107.325L139.282 107.321C139.692 107.088 140.147 106.959 140.612 106.943C141.07 106.928 141.525 107.023 141.944 107.221L156.172 115.612L156.174 115.613C156.505 115.806 156.594 116.015 156.598 116.137C156.602 116.243 156.545 116.45 156.178 116.664L141.919 124.628C141.919 124.628 141.919 124.628 141.919 124.628C141.505 124.857 141.047 124.982 140.581 124.995C140.117 125.008 139.655 124.91 139.233 124.706L123.781 116.663C123.518 116.499 123.49 116.342 123.503 116.245C123.52 116.112 123.641 115.878 124.027 115.65L139.274 107.325Z" fill="#34C759" stroke="black"/>
    <path d="M31.5757 74.2824L31.5022 57.1953H64.5903L64.5898 74.2495V74.2873L64.5954 74.3246C64.608 74.4073 64.5649 74.6511 64.0632 74.9659L49.9062 82.964C49.9051 82.9645 49.9041 82.9651 49.9031 82.9657C49.4929 83.1888 49.0363 83.3128 48.5699 83.328C48.1066 83.343 47.6462 83.2501 47.2247 83.0567L31.81 74.8703L31.786 74.8576L31.7608 74.8475C31.6807 74.8156 31.615 74.7547 31.5769 74.6764L31.1287 74.8945L31.5769 74.6764C31.5389 74.5981 31.5313 74.5083 31.5557 74.4247L31.576 74.355L31.5757 74.2824Z" fill="#34C759" stroke="black"/>
    <path d="M47.2745 48.0507L47.2745 48.0507L47.2817 48.0466C47.6917 47.8138 48.1472 47.685 48.6117 47.6694C49.0696 47.6539 49.5254 47.7488 49.9436 47.9474L64.1715 56.338L64.1738 56.3393C64.5053 56.5325 64.5941 56.7411 64.5982 56.8626C64.6017 56.9691 64.5445 57.1758 64.1777 57.39L49.9189 65.3537C49.9188 65.3538 49.9186 65.3539 49.9185 65.3539C49.5049 65.583 49.047 65.7085 48.5808 65.7215C48.1168 65.7346 47.6554 65.6359 47.2325 65.4325L31.7807 57.3892C31.5182 57.2249 31.49 57.0679 31.5027 56.9707C31.52 56.8382 31.6409 56.6042 32.0269 56.3761L47.2745 48.0507Z" fill="#34C759" stroke="black"/>
    <path d="M31.5757 51.2645L31.506 45.4691H64.5903L64.5898 50.7971L64.5898 50.8349L64.5954 50.8722C64.608 50.9549 64.5649 51.1987 64.0632 51.5136L49.9062 59.5116C49.9051 59.5122 49.9041 59.5128 49.903 59.5134C49.4928 59.7365 49.0363 59.8605 48.5699 59.8756C48.1048 59.8907 47.6426 59.7971 47.2198 59.6021L31.8001 51.8512L31.7808 51.8415L31.7608 51.8335C31.6807 51.8016 31.615 51.7407 31.5769 51.6624C31.5389 51.5842 31.5313 51.4943 31.5557 51.4107L31.5766 51.3391L31.5757 51.2645Z" fill="black" stroke="black"/>
    <path d="M47.2745 36.3246L47.2745 36.3247L47.2817 36.3206C47.6917 36.0878 48.1472 35.9589 48.6117 35.9433C49.0696 35.9278 49.5254 36.0227 49.9436 36.2213L64.1715 44.6119L64.1738 44.6132C64.5053 44.8064 64.5941 45.015 64.5982 45.1366C64.6017 45.243 64.5445 45.4497 64.1777 45.664L49.9189 53.6276C49.9188 53.6277 49.9187 53.6278 49.9185 53.6278C49.5049 53.8569 49.047 53.9824 48.5808 53.9955C48.1168 54.0085 47.6554 53.9099 47.2325 53.7064L31.7807 45.6631C31.5182 45.4989 31.49 45.3418 31.5027 45.2447C31.52 45.1121 31.6409 44.8781 32.0269 44.6501L47.2745 36.3246Z" fill="#34C759" stroke="black"/>
    <path d="M123.576 71.2824L123.502 54.1953H156.59L156.59 71.2495V71.2873L156.595 71.3246C156.608 71.4073 156.565 71.6511 156.063 71.9659L141.906 79.964C141.905 79.9645 141.904 79.9651 141.903 79.9657C141.493 80.1888 141.036 80.3128 140.57 80.328C140.107 80.343 139.646 80.2501 139.225 80.0567L123.81 71.8703L123.786 71.8576L123.761 71.8475C123.681 71.8156 123.615 71.7547 123.577 71.6764L123.129 71.8945L123.577 71.6764C123.539 71.5981 123.531 71.5083 123.556 71.4247L123.576 71.355L123.576 71.2824Z" fill="#34C759" stroke="black"/>
    <path d="M139.274 45.0507L139.275 45.0507L139.282 45.0466C139.692 44.8138 140.147 44.685 140.612 44.6694C141.07 44.6539 141.525 44.7488 141.944 44.9474L156.172 53.338L156.174 53.3393C156.505 53.5325 156.594 53.7411 156.598 53.8626C156.602 53.9691 156.545 54.1758 156.178 54.39L141.919 62.3537C141.919 62.3538 141.919 62.3539 141.919 62.3539C141.505 62.583 141.047 62.7085 140.581 62.7215C140.117 62.7346 139.655 62.6359 139.233 62.4325L123.781 54.3892C123.518 54.2249 123.49 54.0679 123.503 53.9707C123.52 53.8382 123.641 53.6042 124.027 53.3761L139.274 45.0507Z" fill="#34C759" stroke="black"/>
    <path d="M123.576 48.2645L123.506 42.4691H156.59L156.59 47.7971L156.59 47.8349L156.595 47.8722C156.608 47.9549 156.565 48.1987 156.063 48.5136L141.906 56.5116C141.905 56.5122 141.904 56.5128 141.903 56.5134C141.493 56.7365 141.036 56.8605 140.57 56.8756C140.105 56.8907 139.643 56.7971 139.22 56.6021L123.8 48.8512L123.781 48.8415L123.761 48.8335C123.681 48.8016 123.615 48.7407 123.577 48.6624C123.539 48.5842 123.531 48.4943 123.556 48.4107L123.577 48.3391L123.576 48.2645Z" fill="black" stroke="black"/>
    <path d="M139.274 33.3246L139.275 33.3247L139.282 33.3206C139.692 33.0878 140.147 32.9589 140.612 32.9433C141.07 32.9278 141.525 33.0227 141.944 33.2213L156.172 41.6119L156.174 41.6132C156.505 41.8064 156.594 42.015 156.598 42.1366C156.602 42.243 156.545 42.4497 156.178 42.664L141.919 50.6276C141.919 50.6277 141.919 50.6278 141.919 50.6278C141.505 50.8569 141.047 50.9824 140.581 50.9955C140.117 51.0085 139.655 50.9099 139.233 50.7064L123.781 42.6631C123.518 42.4989 123.49 42.3418 123.503 42.2447C123.52 42.1121 123.641 41.8781 124.027 41.6501L139.274 33.3246Z" fill="#34C759" stroke="black"/>
    <path d="M31.5757 145.282L31.5022 128.195H64.5903L64.5898 145.25V145.287L64.5954 145.325C64.608 145.407 64.5649 145.651 64.0632 145.966L49.9062 153.964C49.9051 153.965 49.9041 153.965 49.9031 153.966C49.4929 154.189 49.0363 154.313 48.5699 154.328C48.1066 154.343 47.6462 154.25 47.2247 154.057L31.81 145.87L31.786 145.858L31.7608 145.847C31.6807 145.816 31.615 145.755 31.5769 145.676L31.1287 145.894L31.5769 145.676C31.5389 145.598 31.5313 145.508 31.5557 145.425L31.576 145.355L31.5757 145.282Z" fill="#34C759" stroke="black"/>
    <path d="M47.2745 119.051L47.2745 119.051L47.2817 119.047C47.6917 118.814 48.1472 118.685 48.6117 118.669C49.0696 118.654 49.5254 118.749 49.9436 118.947L64.1715 127.338L64.1738 127.339C64.5053 127.532 64.5941 127.741 64.5982 127.863C64.6017 127.969 64.5445 128.176 64.1777 128.39L49.9189 136.354C49.9188 136.354 49.9186 136.354 49.9185 136.354C49.5049 136.583 49.047 136.708 48.5808 136.722C48.1168 136.735 47.6554 136.636 47.2325 136.432L31.7807 128.389C31.5182 128.225 31.49 128.068 31.5027 127.971C31.52 127.838 31.6409 127.604 32.0269 127.376L47.2745 119.051Z" fill="#34C759" stroke="black"/>
    <path d="M31.5757 122.265L31.506 116.469H64.5903L64.5898 121.797L64.5898 121.835L64.5954 121.872C64.608 121.955 64.5649 122.199 64.0632 122.514L49.9062 130.512C49.9051 130.512 49.9041 130.513 49.903 130.513C49.4928 130.736 49.0363 130.861 48.5699 130.876C48.1048 130.891 47.6426 130.797 47.2198 130.602L31.8001 122.851L31.7808 122.842L31.7608 122.834C31.6807 122.802 31.615 122.741 31.5769 122.662C31.5389 122.584 31.5313 122.494 31.5557 122.411L31.5766 122.339L31.5757 122.265Z" fill="black" stroke="black"/>
    <path d="M47.2745 107.325L47.2745 107.325L47.2817 107.321C47.6917 107.088 48.1472 106.959 48.6117 106.943C49.0696 106.928 49.5254 107.023 49.9436 107.221L64.1715 115.612L64.1738 115.613C64.5053 115.806 64.5941 116.015 64.5982 116.137C64.6017 116.243 64.5445 116.45 64.1777 116.664L49.9189 124.628C49.9188 124.628 49.9187 124.628 49.9185 124.628C49.5049 124.857 49.047 124.982 48.5808 124.995C48.1168 125.008 47.6554 124.91 47.2325 124.706L31.7807 116.663C31.5182 116.499 31.49 116.342 31.5027 116.245C31.52 116.112 31.6409 115.878 32.0269 115.65L47.2745 107.325Z" fill="#34C759" stroke="black"/>
    <defs>
        <clipPath id="clip0_212_4599">
            <rect width="34.0984" height="65.5738" fill="white" transform="translate(79.5737 52.5979)"/>
        </clipPath>
    </defs>
</svg>
