<svg width="188" height="189" viewBox="0 0 188 189" fill="none" xmlns="http://www.w3.org/2000/svg">
    <g clip-path="url(#clip0_212_4636)">
        <path d="M51.5751 103.946L64.1286 94.1953L46.866 84.3716L44.2712 86.8714L43.7065 90.6242L44.121 93.1724L45.3583 96.2654L46.6017 98.6866L47.9892 100.508L51.5751 103.946Z" fill="black"/>
        <path d="M80.1958 55.5893V40.1316H88.5761H88.7091L88.8245 40.0655L91.6705 38.4365C91.8298 38.3469 91.936 38.2046 91.9999 38.1076C92.0728 37.997 92.1387 37.8686 92.1979 37.7417C92.2942 37.5348 92.3922 37.287 92.4848 37.0531C92.5049 37.0023 92.5247 36.9522 92.5442 36.9032C92.6594 36.6143 92.7639 36.3652 92.8624 36.1895C92.8863 36.1468 92.9067 36.1144 92.9233 36.0903C93.2727 36.0925 93.6182 36.1661 93.9379 36.3068L96.9808 38.0431L97.096 38.1088H97.2286H101.552L105.592 39.953V55.4697C105.586 55.575 105.55 55.6769 105.489 55.7642C105.425 55.8542 105.337 55.9251 105.234 55.968L105.205 55.9801L105.177 55.9957L94.1189 62.317C93.7715 62.5075 93.3838 62.6154 92.9864 62.6317C92.5957 62.6478 92.2067 62.5749 91.8493 62.4191L80.4168 55.8829L80.3952 55.8706L80.3726 55.8605C80.3188 55.8364 80.2739 55.7978 80.2428 55.75C80.2117 55.7022 80.1956 55.647 80.1958 55.5911V55.5893ZM92.9681 36.0343C92.9681 36.0344 92.9669 36.0356 92.9644 36.0377C92.9669 36.0352 92.9681 36.0342 92.9681 36.0343Z" fill="#34C759" stroke="black"/>
        <path d="M18.191 94.6107C17.976 94.6107 17.767 94.5462 17.5965 94.4272C17.4259 94.3082 17.3033 94.1415 17.2476 93.9527C17.192 93.764 17.2064 93.5638 17.2886 93.3833C17.3709 93.2028 17.5164 93.052 17.7025 92.9542L31.8137 85.5485C32.0389 85.4308 32.3062 85.3992 32.557 85.4606C32.8078 85.522 33.0215 85.6715 33.151 85.8761C33.2806 86.0806 33.3154 86.3236 33.2478 86.5516C33.1802 86.7795 33.0158 86.9737 32.7906 87.0914L18.7092 94.4916C18.5521 94.5746 18.3726 94.6159 18.191 94.6107Z" fill="#34C759"/>
        <path d="M0.500005 103.967V87.8448H8.88033H9.01807L9.13638 87.7742L11.9824 86.0774C12.1416 85.984 12.2466 85.837 12.3091 85.738C12.3811 85.6242 12.4464 85.4919 12.5053 85.3603C12.6012 85.1457 12.6988 84.8887 12.7914 84.6451C12.8115 84.5921 12.8314 84.5397 12.8509 84.4886C12.9661 84.1877 13.0713 83.9265 13.1708 83.7415C13.1953 83.6959 13.2164 83.661 13.2335 83.6351C13.5777 83.6383 13.9185 83.7142 14.2347 83.8591L17.2773 85.6675L17.3954 85.7377H17.5328H21.8516L25.896 87.6607V103.844C25.8895 103.962 25.8515 104.075 25.7875 104.169L26.2019 104.449L25.7875 104.169C25.7219 104.267 25.6325 104.34 25.5312 104.384L25.5015 104.397L25.4738 104.413L14.4155 110.998C14.0691 111.196 13.6837 111.307 13.2898 111.324C12.9026 111.341 12.5165 111.266 12.1609 111.104L0.728632 104.296L0.706824 104.283L0.683812 104.272C0.631901 104.248 0.585497 104.208 0.551978 104.154C0.518351 104.1 0.499781 104.036 0.500005 103.969V103.967ZM13.2802 83.5748C13.2802 83.575 13.2788 83.5765 13.2759 83.579C13.2788 83.5759 13.2802 83.5747 13.2802 83.5748Z" fill="#34C759" stroke="black"/>
        <path d="M168.946 94.6112C168.787 94.6114 168.63 94.5703 168.492 94.4921L155.39 87.0915C155.18 86.9737 155.028 86.7795 154.965 86.5516C154.902 86.3237 154.934 86.0807 155.055 85.8761C155.175 85.6715 155.374 85.522 155.607 85.4606C155.84 85.3992 156.088 85.4308 156.297 85.5485L169.4 92.9546C169.573 93.0523 169.708 93.2032 169.784 93.3837C169.86 93.5642 169.874 93.7644 169.822 93.9531C169.77 94.1419 169.657 94.3086 169.498 94.4276C169.34 94.5466 169.146 94.6111 168.946 94.6112Z" fill="#34C759"/>
        <path d="M141.424 78.5443C141.268 78.5445 141.115 78.5042 140.981 78.4275L127.846 70.9951C127.743 70.939 127.652 70.8633 127.58 70.7725C127.507 70.6817 127.453 70.5776 127.422 70.4662C127.39 70.3548 127.382 70.2384 127.397 70.1237C127.412 70.009 127.45 69.8984 127.508 69.7983C127.567 69.6982 127.646 69.6106 127.739 69.5406C127.833 69.4707 127.94 69.4197 128.054 69.3908C128.167 69.3618 128.286 69.3555 128.402 69.372C128.519 69.3886 128.631 69.4278 128.731 69.4873L141.867 76.9198C142.035 77.0156 142.167 77.1635 142.242 77.3406C142.316 77.5176 142.329 77.7139 142.279 77.899C142.228 78.0841 142.117 78.2476 141.963 78.3643C141.808 78.4809 141.619 78.5442 141.424 78.5443Z" fill="#34C759"/>
        <path d="M113.857 63.625C113.697 63.6252 113.541 63.5789 113.403 63.4908L100.286 55.1538C100.082 55.0187 99.9343 54.8007 99.8746 54.5468C99.815 54.2929 99.8483 54.0233 99.9674 53.7962C100.087 53.569 100.282 53.4025 100.512 53.3325C100.741 53.2624 100.986 53.2945 101.195 53.4217L114.311 61.7588C114.52 61.8914 114.672 62.1099 114.734 62.3661C114.797 62.6222 114.764 62.8952 114.644 63.1249C114.565 63.2778 114.45 63.4047 114.312 63.4926C114.174 63.5805 114.017 63.6262 113.857 63.625Z" fill="#34C759"/>
        <path d="M51.9086 85.0063L51.9086 85.0062L51.8982 85.0002C51.2478 84.628 50.5967 84.341 49.9566 84.1427L81.3379 66.2052L81.5055 66.1119C82.4984 65.589 84.0208 65.5998 85.9285 66.666C85.9299 66.6667 85.9312 66.6674 85.9325 66.6682L132.864 93.4908L116.097 119.527L113.182 120.543L110.448 119.457L51.9086 85.0063Z" fill="black" stroke="#34C759" stroke-width="2"/>
        <g clip-path="url(#clip1_212_4636)">
            <path d="M80.5206 75.0582L80.5644 79.9253L72.4653 79.9494L72.4458 78.3947L77.6361 78.3802L77.6117 75.0679L80.5206 75.0582Z" fill="#34C759"/>
            <path d="M97.2876 91.895L95.0646 93.1697L80.4424 84.7344L82.6605 83.4597L97.2876 91.895Z" fill="#34C759"/>
            <path d="M102.468 88.916L100.25 90.1956L85.623 81.7554L87.8412 80.4807L102.468 88.916Z" fill="#34C759"/>
            <path d="M107.775 86.0092L105.552 87.2839L79.562 72.2916L81.785 71.0168L107.775 86.0092Z" fill="#34C759"/>
            <path d="M92.8754 94.9901L90.6523 96.2648L64.6621 81.2725L66.8851 79.9978L92.8754 94.9901Z" fill="#34C759"/>
        </g>
        <path d="M118.207 116.158C118.207 116.246 118.207 116.329 118.207 116.418C118.069 113.621 117.28 110.905 115.912 108.52L116.105 108.384C117.4 110.746 118.122 113.419 118.207 116.158Z" fill="white"/>
        <path d="M51.344 103.583V102.735C47.4859 100.465 44.616 94.5931 44.616 90.0457C44.616 85.4983 47.4859 84.3633 51.344 86.6399L109.667 121.038C113.932 123.551 118.208 121.548 118.208 116.522C118.208 111.496 114.74 105.369 110.475 102.856V103.721C114.333 106.026 117.474 111.542 117.474 116.09C117.474 120.637 114.206 121.947 110.348 119.676L51.344 85.3584C46.6594 82.2124 43.6108 84.8858 43.6108 89.9116C43.6108 94.9374 47.0792 101.07 51.344 103.583Z" fill="#34C759"/>
        <path d="M101.901 142.813C101.701 142.813 101.507 142.748 101.349 142.629C101.19 142.51 101.076 142.343 101.025 142.155C100.973 141.966 100.986 141.766 101.063 141.585C101.139 141.405 101.274 141.254 101.447 141.156L114.55 133.751C114.758 133.633 115.006 133.601 115.238 133.662C115.471 133.723 115.669 133.871 115.789 134.075C115.85 134.176 115.889 134.288 115.905 134.403C115.921 134.519 115.913 134.637 115.882 134.749C115.852 134.862 115.798 134.968 115.725 135.06C115.652 135.153 115.561 135.23 115.457 135.288L102.372 142.694C102.229 142.775 102.066 142.816 101.901 142.813Z" fill="#34C759"/>
        <path d="M129.423 127.894C129.228 127.893 129.039 127.822 128.884 127.691C128.729 127.56 128.618 127.375 128.567 127.167C128.517 126.959 128.53 126.738 128.605 126.538C128.679 126.339 128.811 126.173 128.98 126.065L142.123 117.698C142.224 117.633 142.335 117.591 142.451 117.573C142.566 117.556 142.684 117.564 142.796 117.597C142.909 117.63 143.015 117.688 143.107 117.766C143.2 117.844 143.278 117.942 143.336 118.053C143.395 118.165 143.433 118.288 143.449 118.415C143.464 118.543 143.457 118.673 143.427 118.798C143.397 118.922 143.345 119.039 143.275 119.142C143.204 119.244 143.116 119.33 143.015 119.395L129.866 127.762C129.732 127.849 129.579 127.895 129.423 127.894Z" fill="#34C759"/>
        <path d="M45.7112 78.5443C45.5435 78.5448 45.3787 78.5047 45.2335 78.4282C45.0883 78.3517 44.9679 78.2414 44.8846 78.1086C44.7596 77.9081 44.7261 77.6708 44.7915 77.448C44.8569 77.2253 45.0158 77.035 45.2339 76.9184L59.3919 69.4798C59.6111 69.3642 59.8717 69.3329 60.1162 69.3927C60.3608 69.4525 60.5693 69.5985 60.6959 69.7986C60.7593 69.8975 60.8007 70.0069 60.8174 70.1205C60.8342 70.234 60.8261 70.3495 60.7936 70.4602C60.7611 70.5709 60.7049 70.6747 60.6282 70.7654C60.5514 70.8561 60.4557 70.932 60.3466 70.9887L46.1886 78.4274C46.0436 78.5041 45.8789 78.5445 45.7112 78.5443Z" fill="#34C759"/>
        <path d="M73.2079 63.625C73.0084 63.6249 72.8145 63.5524 72.6563 63.4186C72.498 63.2848 72.3843 63.0972 72.3326 62.8849C72.281 62.6727 72.2944 62.4476 72.3707 62.2445C72.447 62.0415 72.582 61.8718 72.7547 61.7619L85.8481 53.4387C85.9513 53.3704 86.0657 53.3255 86.1848 53.3065C86.3039 53.2875 86.4253 53.2948 86.5418 53.328C86.6583 53.3612 86.7677 53.4196 86.8635 53.4998C86.9593 53.5801 87.0396 53.6805 87.0998 53.7953C87.1599 53.9102 87.1988 54.037 87.214 54.1685C87.2292 54.3001 87.2205 54.4336 87.1883 54.5613C87.1562 54.6891 87.1013 54.8086 87.0268 54.9127C86.9523 55.0168 86.8597 55.1036 86.7545 55.1679L73.6611 63.4911C73.5238 63.5799 73.3672 63.6261 73.2079 63.625Z" fill="#34C759"/>
        <path d="M85.1625 143.961C85.0035 143.96 84.8473 143.919 84.7093 143.841L71.6215 136.445C71.5163 136.388 71.4237 136.311 71.3492 136.218C71.2748 136.125 71.2198 136.019 71.1877 135.905C71.1556 135.792 71.1468 135.673 71.162 135.556C71.1773 135.439 71.2161 135.326 71.2763 135.224C71.3365 135.121 71.4168 135.032 71.5126 134.961C71.6084 134.889 71.7177 134.837 71.8342 134.808C71.9508 134.778 72.0721 134.772 72.1912 134.788C72.3103 134.805 72.4248 134.845 72.5279 134.906L85.6213 142.319C85.8294 142.437 85.9812 142.631 86.0434 142.858C86.1056 143.086 86.073 143.328 85.9529 143.532C85.8696 143.664 85.7531 143.773 85.6147 143.848C85.4763 143.923 85.3206 143.961 85.1625 143.961Z" fill="#34C759"/>
        <path d="M57.6432 127.893C57.4874 127.893 57.3343 127.853 57.1995 127.776L44.0412 120.332C43.8418 120.214 43.6974 120.024 43.6391 119.802C43.5808 119.581 43.6134 119.346 43.7298 119.148C43.8461 118.95 44.037 118.805 44.2612 118.744C44.4854 118.683 44.7251 118.71 44.9286 118.821L58.0869 126.266C58.2906 126.382 58.4392 126.572 58.5001 126.795C58.561 127.019 58.5291 127.257 58.4115 127.457C58.3345 127.59 58.2227 127.701 58.0876 127.778C57.9526 127.854 57.7991 127.894 57.6432 127.893Z" fill="#34C759"/>
        <path d="M30.0799 111.827C29.9207 111.827 29.7643 111.786 29.6265 111.708L16.5338 104.309C16.4285 104.252 16.3359 104.175 16.2614 104.082C16.1869 103.99 16.132 103.884 16.0998 103.77C16.0677 103.657 16.0589 103.538 16.0742 103.421C16.0894 103.304 16.1282 103.191 16.1884 103.089C16.2486 102.987 16.329 102.898 16.4248 102.827C16.5207 102.755 16.63 102.703 16.7466 102.674C16.8632 102.644 16.9846 102.638 17.1037 102.655C17.2229 102.672 17.3374 102.712 17.4406 102.772L30.5333 110.165C30.7061 110.263 30.8411 110.414 30.9174 110.594C30.9938 110.775 31.0071 110.975 30.9555 111.163C30.9038 111.352 30.79 111.519 30.6317 111.638C30.4734 111.757 30.2795 111.821 30.0799 111.821V111.827Z" fill="#34C759"/>
        <path d="M80.8359 147.893V132.435H89.2163H89.3492L89.4646 132.369L92.3107 130.74C92.4699 130.65 92.5762 130.508 92.64 130.411C92.7129 130.3 92.7789 130.172 92.838 130.045C92.9343 129.838 93.0324 129.59 93.1249 129.356C93.145 129.306 93.1649 129.256 93.1844 129.207C93.2996 128.918 93.4041 128.669 93.5026 128.493C93.5265 128.45 93.5469 128.418 93.5634 128.394C93.9128 128.396 94.2583 128.469 94.578 128.61L97.6209 130.346L97.7361 130.412H97.8687H102.192L106.232 132.256V147.773C106.226 147.878 106.19 147.98 106.129 148.068C106.066 148.158 105.977 148.228 105.874 148.271L105.845 148.283L105.817 148.299L94.7591 154.62C94.4117 154.811 94.0239 154.919 93.6266 154.935C93.2358 154.951 92.8468 154.878 92.4895 154.722L81.0569 148.186L81.0354 148.174L81.0127 148.164C80.9589 148.14 80.914 148.101 80.8829 148.053C80.8519 148.006 80.8357 147.95 80.8359 147.894V147.893ZM93.6082 128.338C93.6082 128.338 93.607 128.339 93.6045 128.341C93.607 128.339 93.6083 128.337 93.6082 128.338Z" fill="#34C759" stroke="black"/>
        <path d="M81.0555 132.195L81.0554 132.195C80.8275 132.066 80.8337 131.959 80.8371 131.932C80.8449 131.87 80.9164 131.696 81.2443 131.521L81.2444 131.521L81.2549 131.515L92.3056 125.265C92.6532 125.076 93.0415 124.969 93.4397 124.953C93.8313 124.937 94.221 125.009 94.5788 125.164L106.01 131.626L106.011 131.627C106.241 131.756 106.234 131.863 106.231 131.89C106.223 131.952 106.151 132.126 105.825 132.301L105.825 132.301L105.816 132.306L94.7595 138.557C94.4119 138.745 94.0235 138.852 93.6254 138.868C93.2337 138.884 92.844 138.812 92.4862 138.658L81.0555 132.195Z" fill="#34C759" stroke="black"/>
        <path d="M148.807 101.65L117.238 119.946C117.295 119.846 117.351 119.742 117.406 119.635C118.309 117.869 118.729 115.299 117.388 111.801C115.943 108.034 113.91 105.836 112.215 104.579C111.447 104.01 110.751 103.636 110.217 103.396L144.913 83.7136C146.853 84.9109 148.631 86.889 149.942 89.1669C151.307 91.5399 152.138 94.1904 152.138 96.5452C152.138 98.8 151.38 100.295 150.277 101.023L148.863 101.622L148.834 101.634L148.807 101.65Z" fill="#34C759" stroke="black"/>
        <path d="M0.719525 87.9028L0.719496 87.9028C0.491548 87.7739 0.497713 87.6669 0.501124 87.6397C0.508928 87.5775 0.580472 87.4037 0.908361 87.2286L0.908429 87.2287L0.918931 87.2228L11.9697 80.9726C12.3173 80.7841 12.7056 80.6772 13.1038 80.661C13.4954 80.645 13.8851 80.7173 14.2429 80.8716L25.6737 87.3343L25.6752 87.3352C25.9055 87.4643 25.8982 87.5712 25.8949 87.5975C25.887 87.6603 25.8147 87.8342 25.4892 88.0093L25.4892 88.0092L25.4801 88.0143L14.4236 94.2645C14.076 94.453 13.6876 94.5599 13.2894 94.5761C12.8978 94.5921 12.5081 94.5199 12.1503 94.3655L0.719525 87.9028Z" fill="#34C759" stroke="black"/>
        <path d="M80.4153 39.8911L80.4153 39.8911C80.1873 39.7622 80.1935 39.6551 80.1969 39.628C80.2047 39.5657 80.2763 39.392 80.6042 39.2168L80.6042 39.217L80.6147 39.211L91.6655 32.9609C92.0131 32.7724 92.4014 32.6655 92.7996 32.6493C93.1912 32.6333 93.5809 32.7056 93.9387 32.8599L105.369 39.3226L105.371 39.3235C105.601 39.4526 105.594 39.5594 105.591 39.5857C105.583 39.6486 105.511 39.8224 105.185 39.9975L105.185 39.9974L105.176 40.0026L94.1194 46.2528C93.7718 46.4413 93.3834 46.5482 92.9852 46.5644C92.5936 46.5804 92.2039 46.5081 91.8461 46.3538L80.4153 39.8911Z" fill="#34C759" stroke="black"/>
        <path d="M162.104 103.716V87.5929H170.484H170.622L170.74 87.5224L173.586 85.8255C173.746 85.7322 173.851 85.5851 173.913 85.4862C173.985 85.3724 174.05 85.2401 174.109 85.1085C174.205 84.8939 174.303 84.6369 174.395 84.3933C174.415 84.3403 174.435 84.2879 174.455 84.2368C174.57 83.9359 174.675 83.6747 174.775 83.4897C174.799 83.444 174.82 83.4092 174.837 83.3833C175.182 83.3865 175.522 83.4624 175.839 83.6072L178.881 85.4157L178.999 85.4859H179.137H183.456L187.5 87.4088V103.592C187.494 103.71 187.455 103.823 187.391 103.918L187.806 104.197L187.391 103.918C187.326 104.015 187.236 104.088 187.135 104.132L187.106 104.145L187.078 104.161L176.02 110.746C175.673 110.944 175.288 111.055 174.894 111.072C174.507 111.089 174.12 111.014 173.765 110.852L162.333 104.044L162.311 104.031L162.288 104.02C162.236 103.996 162.19 103.956 162.156 103.902C162.122 103.848 162.104 103.784 162.104 103.717V103.716ZM174.884 83.323C174.884 83.3231 174.883 83.3247 174.88 83.3271C174.883 83.3241 174.884 83.3228 174.884 83.323Z" fill="#34C759" stroke="black"/>
        <path d="M162.324 87.6505L162.324 87.6505C162.096 87.5216 162.102 87.4145 162.105 87.3874C162.113 87.3251 162.184 87.1514 162.512 86.9762L162.512 86.9764L162.523 86.9704L173.574 80.7203C173.921 80.5318 174.31 80.4249 174.708 80.4087C175.099 80.3927 175.489 80.465 175.847 80.6193L187.278 87.082L187.279 87.0829C187.509 87.212 187.502 87.3188 187.499 87.3451C187.491 87.408 187.419 87.5818 187.093 87.7569L187.093 87.7568L187.084 87.762L176.028 94.0122C175.68 94.2007 175.292 94.3076 174.893 94.3238C174.502 94.3398 174.112 94.2675 173.754 94.1132L162.324 87.6505Z" fill="#34C759" stroke="black"/>
        <path d="M156.988 111.826C156.788 111.826 156.594 111.754 156.435 111.62C156.277 111.486 156.163 111.298 156.111 111.086C156.06 110.874 156.073 110.649 156.15 110.445C156.226 110.242 156.361 110.073 156.534 109.963L169.634 101.631C169.844 101.498 170.093 101.463 170.327 101.533C170.56 101.602 170.759 101.771 170.879 102.002C171 102.233 171.032 102.507 170.968 102.764C170.905 103.021 170.752 103.24 170.542 103.373L157.441 111.705C157.302 111.788 157.146 111.83 156.988 111.826Z" fill="#34C759"/>
    </g>
    <defs>
        <clipPath id="clip0_212_4636">
            <rect width="188" height="188" fill="white" transform="translate(0 0.146973)"/>
        </clipPath>
        <clipPath id="clip1_212_4636">
            <rect width="43.7071" height="25.7453" fill="white" transform="translate(64.6621 71.0168)"/>
        </clipPath>
    </defs>
</svg>
