<svg width="164" height="164" viewBox="0 0 164 164" fill="none" xmlns="http://www.w3.org/2000/svg">
    <path d="M79.25 21.4745C80.9517 20.492 83.0483 20.492 84.75 21.4745L133.042 49.3557C134.743 50.3381 135.792 52.1538 135.792 54.1188V109.881C135.792 111.846 134.743 113.662 133.042 114.644L84.75 142.526C83.0483 143.508 80.9517 143.508 79.25 142.526L30.9583 114.644C29.2566 113.662 28.2083 111.846 28.2083 109.881V54.1188C28.2083 52.1538 29.2566 50.3381 30.9583 49.3557L79.25 21.4745Z" stroke="#34C759" stroke-width="5"/>
    <path d="M78.328 76.5059L83.7246 76.5146L83.6491 117.286L78.2525 117.275L78.328 76.5059ZM81.0443 44.8572L97.0811 60.7528V73.5079L113.571 89.4488V100.934H97.0488V108.351H91.6522V98.6721H91.6846V62.8743L81.0443 52.3277L70.4058 62.8726L70.4832 100.868H70.458V108.351H65.0614V100.868H48.5713V89.4488L65.0309 73.5358L65.0057 60.7546L81.0443 44.8572ZM97.0811 80.8863V95.7177H108.175V91.6103L97.0811 80.8863ZM65.0452 80.9002L53.9679 91.6086V95.6516H65.0758L65.0452 80.9002Z" fill="#34C759"/>
</svg>
