<svg width="196" height="188" viewBox="0 0 196 188" fill="none" xmlns="http://www.w3.org/2000/svg">
    <path d="M113.83 145.274C107.293 165.283 89.249 165.139 61.1228 135.762C48.8925 122.95 34.1641 113.162 23.6251 119.893C10.6473 128.06 11.3859 138.862 17.0422 153.204C7.76142 139.553 2.0954 123.776 0.573468 107.345C-0.948465 90.9139 1.72335 74.3657 8.33932 59.246C14.9553 44.1263 25.2995 30.9286 38.4057 20.8857C51.5119 10.8428 66.9523 4.28251 83.2847 1.81758C86.9066 1.28235 90.5557 0.950181 94.2148 0.822619C67.816 6.25252 47.3842 26.7811 47.6864 57.81C47.8648 103.788 123.633 115.376 113.83 145.274Z" fill="url(#paint0_linear_2577_5386)"/>
    <path d="M180.141 45.9315C184.959 69.7736 164.66 76.9305 149.618 67.4004C141.017 61.9716 131.397 45.2884 118.401 41.0505C107.868 37.6157 96.688 39.6771 93.211 50.3185C87.0899 69.052 113.174 73.2281 142.408 99.8172C169.622 127.06 160.884 166.063 138.156 187.188C158.414 178.594 173.436 163.567 183.57 144.918C193.704 126.269 197.476 104.828 194.315 83.8454C192.33 70.3475 187.499 57.4244 180.141 45.9315Z" fill="url(#paint1_linear_2577_5386)"/>
    <defs>
        <linearGradient id="paint0_linear_2577_5386" x1="19.6648" y1="23.1182" x2="168.407" y2="71.5127" gradientUnits="userSpaceOnUse">
            <stop stop-color="#24FEC1"/>
            <stop offset="1" stop-color="#A8FF35"/>
        </linearGradient>
        <linearGradient id="paint1_linear_2577_5386" x1="90.8667" y1="57.4932" x2="227.28" y2="101.867" gradientUnits="userSpaceOnUse">
            <stop stop-color="#24FEC1"/>
            <stop offset="1" stop-color="#A8FF35"/>
        </linearGradient>
    </defs>
</svg>
